<mxfile host="65bd71144e">
    <diagram id="gKgT1MnG-9WgO-ydrr-O" name="Page-1">
        <mxGraphModel dx="1899" dy="936" grid="1" gridSize="10" guides="1" tooltips="1" connect="1" arrows="1" fold="1" page="1" pageScale="1" pageWidth="850" pageHeight="1100" math="0" shadow="0">
            <root>
                <mxCell id="0"/>
                <mxCell id="1" parent="0"/>
                <mxCell id="3" style="edgeStyle=none;html=1;entryX=0.5;entryY=0;entryDx=0;entryDy=0;" parent="1" source="2" edge="1">
                    <mxGeometry relative="1" as="geometry">
                        <mxPoint x="350" y="200" as="targetPoint"/>
                    </mxGeometry>
                </mxCell>
                <mxCell id="2" value="MedInvoice Contract" style="rounded=0;whiteSpace=wrap;html=1;" parent="1" vertex="1">
                    <mxGeometry x="290" y="50" width="120" height="60" as="geometry"/>
                </mxCell>
                <mxCell id="61" style="edgeStyle=none;html=1;entryX=0.5;entryY=0;entryDx=0;entryDy=0;horizontal=1;" parent="1" source="54" target="60" edge="1">
                    <mxGeometry relative="1" as="geometry"/>
                </mxCell>
                <mxCell id="73" style="edgeStyle=none;html=1;" parent="1" source="54" target="74" edge="1">
                    <mxGeometry relative="1" as="geometry">
                        <mxPoint x="290" y="420" as="targetPoint"/>
                    </mxGeometry>
                </mxCell>
                <mxCell id="89" style="edgeStyle=none;html=1;" parent="1" source="54" target="90" edge="1">
                    <mxGeometry relative="1" as="geometry">
                        <mxPoint x="520" y="400" as="targetPoint"/>
                    </mxGeometry>
                </mxCell>
                <mxCell id="91" style="edgeStyle=none;html=1;" parent="1" source="54" target="92" edge="1">
                    <mxGeometry relative="1" as="geometry">
                        <mxPoint x="480" y="400" as="targetPoint"/>
                    </mxGeometry>
                </mxCell>
                <mxCell id="103" style="edgeStyle=none;html=1;entryX=0.5;entryY=0;entryDx=0;entryDy=0;" parent="1" source="54" target="104" edge="1">
                    <mxGeometry relative="1" as="geometry">
                        <mxPoint x="1130" y="390" as="targetPoint"/>
                    </mxGeometry>
                </mxCell>
                <mxCell id="109" style="edgeStyle=none;html=1;entryX=0.5;entryY=0;entryDx=0;entryDy=0;" parent="1" source="54" target="110" edge="1">
                    <mxGeometry relative="1" as="geometry">
                        <mxPoint x="1440" y="400" as="targetPoint"/>
                    </mxGeometry>
                </mxCell>
                <mxCell id="127" style="edgeStyle=none;html=1;entryX=0.5;entryY=0;entryDx=0;entryDy=0;" parent="1" source="54" target="132" edge="1">
                    <mxGeometry relative="1" as="geometry">
                        <mxPoint x="-200" y="430" as="targetPoint"/>
                    </mxGeometry>
                </mxCell>
                <mxCell id="149" style="edgeStyle=none;html=1;" parent="1" source="54" target="150" edge="1">
                    <mxGeometry relative="1" as="geometry">
                        <mxPoint x="190" y="420" as="targetPoint"/>
                    </mxGeometry>
                </mxCell>
                <mxCell id="54" value="" style="shape=image;verticalLabelPosition=bottom;labelBackgroundColor=default;verticalAlign=top;aspect=fixed;imageAspect=0;image=data:image/png,iVBORw0KGgoAAAANSUhEUgAAAr4AAAB8CAYAAACPOLPjAAAABHNCSVQICAgIfAhkiAAAABl0RVh0U29mdHdhcmUAZ25vbWUtc2NyZWVuc2hvdO8Dvz4AAAAtdEVYdENyZWF0aW9uIFRpbWUAVHVlIDAzIEp1biAyMDI1IDAxOjE4OjI4IFBNIElTVJvLGNcAACAASURBVHic7L19VFvXme//CdIBWQKkRIg3DQIjI7BiMBCDC3YC3KKsmCSlveW3xrQZ0lVnTZ01y5lp0mnSO01f0s606SSZady5SWbFXRN3Gqd3OXfipDFZgV5DHEONbbDBkXmxKBYjwAg5ko2EjCT394d4ESCwwPgtOZ9/bI7OPmefs89+9nc/+9l737Fu3bo/I/LZIPWvePAbFSjmH/ePYa1/ibauEa7cjHyFQbFmA7l3/gV3SgVwH6XeMXqzsyQiIiIiIiLyGecOUfh+thCUmah1euJi45HFgNfRz0hvB5cu3+yciYiIiIiIiIjcXEThKyIiIiIiIiIi8rkg6mZnQERERERERERERORGIApfERERERERERGRzwWi8BUREREREREREflcIApfERERERERERGRzwWi8BUREREREREREflcIApfERERERERERGRzwXSm52BpRDkcoQ5R3x4PL6blJtpBAS5MDdfPh8e383Ol4iIiIjIqiJZgzCvlQxcnrhlNgISERFZPqskfAU0m2qpqykiS6NELgAMUf/sM+w7F/78smdeZYfRSeNzT7H3bLhz1lH3/E8xaUKPmXn9m8/R6FmdXK8IzTZ+svtrZIQeGzjAk8/sYyjiS/yEF2vTObf/KZ591776ebxlWENcZi5xUsA/xoX+frzzf9flEicDGONC7/zfbwOUjzLxjSe4Yv475A2HuWOpc2PSSDbkoklKJlrqY9LRz0hvO3bXxI3Krcg8otQbSFbLARdOSw+ewHKvUEDREzvRcZSPXv41EdXm1O088EgFMste3n37iCiiVoko9RbyKk1otQnIpEHXxGjD33O44+IKrygl+eF/5j6jPOSYD+v+v+GPvf5rzu/8e8lTC0lOz+ROpRz8Hi6eP43NfDr8NylJRqPXzXMMzXLF2c3I6MLnFtQbSM7MRq1WIsGH29HDqLmdC+4lnifpH/A88j+h5ZvIW0+t6OlWFUUmydqEucPVfg++8TGcjhF8y67DtwbXbotEImVVhK+wro4ffMeEZtJOn/kUdo8PcNLnXCqVguhoz6IVF+w073+DITmAhqLqKoyq1cjtNeI+xYE3fKgAVEaqqovQXC3NfASB6OhohCWe/loQNtbxg5osnC2v82J92J7HDUKH/oGdGFQAY/S+/l1Ohu5MrNjMPdvrSJQC/nY+fvFXDN1WlT0Bn+kJ/LJ+ZG1LiV4pqoKdfMFUSPycGlfBelMdjoYf8odjI9c9t2FRFHNPjQmVo4kjvz9y+3U8QlCVfJt7DAK2hl/QHVEvdA3ayl2U6AXAh+2//o4jZ5bfCZFIBSQISCJOISCRCkTf0uNttxkxBdzz9R2sjfVw8Vw3NndwBM7huJaROD/O9v0cPxe003fm1aDXRp46Sred+yr0+Dr3cqRjcPETE6sor6kmUTW/PbifApOF3nd2c7J/noiNLSS/poY7F7nkpHk3777TMdupkmwg/xs70Ccp532nFWByMXzoVf7Y2kPYt3X+NYRz/xPvfX+Pr/MRBPfij3IjiNJW8YWaQqLD/egfY7htH8eaOlbNlkVcjtfE6tgikchYFdObZSpCwyTmvd/nuUZXBCl89DW+wZtmH2cXdZG4ONtcT9AZnI6m8hYRvp5ztE6LSSWUrkD4us0HePNNDS7zkj2DlaNKJSsrC/uA4vpcf9n4CPgT0OZlcrKxf+aozLAFtdRHYFmi4RYi6Qkms+O545PXkC7x2csLnqR8Ww7R/mGshw7Q22vB65cjS81lbWE5dymuTwcoIqRKVFo9amk3AtzGwleKTK1HrRVwx0qBCDxyklx06QL4fQSkAprsHKLOdIge2NuQqPQtaGNhwryHD99ZvTL0Wpvotwb/r9FWodfKl04QiiKFRK0e9/ml00SpMlHHevi0p50BcwcOh4srshQ0hdXkGfUYap7Eu+dHdDvCJHZ2ceZYz4J6G3BY574DWQIqtRyv7SjWzg5Gzg/j8yuJM5rIK84lpWIXXxj/IYe7wt1kDKHlfSaza5m8716k9VcZ2bpROLvobO1gEgA50UmZpBkLSSndRbn0eT5s7Fmd7yDCcrwmRFt0Q1kF4SugUQbd87ahSERvkKHj9bx77Te/LfGcbeXdsOEdn1WsjJxLQWsoRtXYT1Duq0nN04Gtm1F1Lim3nfcrDn/Jg1zhv4lu+2jxhkBZTrEph2jGsLz1U05Yp3vxDjyuQS6c+RDZzRS+n2Oi9MVopOBu/5BRw4OszSwmUdLByG016iACEK1UEg18en74thMLV843cOi1V7ngCu2sDeK0duOL+SeK9TqySjbQ/fvTCxO7e7AcO8hVo/+83XT+599zYSjUczyIc/Q0zss/4v4KHSkl5cR1vc2lcOmH9iGM1HLZ+A38/+8wwuXlPuV14HIP1o6mOc/e2/lXbPtGBfF5JpIP9dw2I4iiLbqxrFBuyFlXVk1RKoBAujYakJNVWUftxunBEjunDjZiDtHCqZu+RFlWqBfSiflgPaci18uR56+kkrJSI1qVAtx2bKeaebfxFPabNAdNSC+jpjR1zjH7qQM0mpc2WULqJiq3lbJRq0Eh+HA7ndj7TnH8+DFODc2mFdaVURMsEIT04HicPKuSutqNs8NX9lMcbDSz6q/7qvgY7uzirq8UkpH6FieHAGUha5PAcagNb0nugi8xGIu2gURtCnKFnGh8uB0WbJ0NDA4tjF2TZZrI0MVzsesAF2K2klNcjEoJAZeVwbaDDIRJczXkqRspLdMwsK+RBf2UGBO+7HhwNiAdmlz0GnEFJhKlELAc5BNruKErP95w8XUxaaQWmtDpElDIYNI1zIi5CUvv4MKGXVlAVkEmkqEjdFsgtbiKtboUZFIPF/ub+KStY268WEw2mYUbUMQAMj1yAIUeQ/lXmXmSyyMMth3BOd/wTt2LoSP09bpQra8iy6gnPlZg0tXNQNvc8lluOc6yhjhDBXpjNnEKORK/C7ejh8GOjxlxzL7HOMNXyZiyQ4qkYAdClVtDbupsRfdam+jrn+/JkpJoyCEaF7beg9hkFaw15pCmlTJiXcRbHJNGWkkVOm0CAi4u9TZxpn2JRwCi1AUYiragUSuReIcZ6TqIZXypFGu4K7cKbawDW3sTF6QbyCwpR6tVEu134ew9wpn2jgXxf7LUcrIKN6BSKpHgwW3rwHKsiQuLDEtHqQvQFxSTmJSATOpjctzFpaHT2MyLxZxLkem2kpVXgEopJxoPXrcLh6UDW28Hl26CEJLpTGRkxiMA0dqE4LHMKnJjZi2c03yAwdH55bkG1foK9NnZxCnl4B3D2XuE3s5F4mmXQVTiFgzG5GAQmzoFAEFbTm75hplzfK7TWDpCwgpcPVwIe7WLjPQOg17PGmUKMk6vfEQmMMKFRcJ/LvV2cbFCx52qFOIkcCnsOziD1Gzh8v/YjM+oReiwrTQn15Ur53tw+itQyBJQxAIuQF1MTm4aDB2huzdcSNkaVLlVpKkvYu9oYMS1wnKcRpIctN2ZKchkAoFxKyNdDVh6RxbplK3AFi3TDsNsfXGbDzDoSCC5sAq9IQUZPtzn27C0fox9pi0KxpxrDRtQq5XIYoNx525bBwMdH2Of00mLR1NgIlk2ZbPC2YLpNsrRQW9XPxJjJTWpdhqbb44mW6HwFciq3EZ1VmiUjYKM0qqQSV82aAkVvgKppdVUl4YKXzvyY6ssfOVG6r73FFVZCmASp9ODkJ6FMb+UssoGXnxuz3UQ2ldHyCpjW7VxTlzSgLt5SeGr3PQ4P3iiDG00TLrtuDwCqelG8otKMRXJ+daz9TMiVh7m+oqMUqoyQg7YoGUx4Sts4ondj7NRAGfLizy1x7zSRw3LFesRRsY3ozVmcnKoH7mhGDUW2npdaErmnRxTzpZv1ZEIgI+JcQ9XkKNOz0FXWIGhZTcfNc01OHKDibzCBBxqHbLsXBR+FxNeOWu0OaQYN6N973mOdEUQRysoWVdaRVVlKZuyNERPHuOX+xs5O69y/jn9QfxSuONc4xJrAqpJ1qcAPhy97ZE3Wupytny9Dm0s4Pcw4QWVNocUYwWGnj0cevvIXA+PsoCc0q1EW+TI7t2KIQkmvT4kMjnq9Fy0ur18+LsQz0jsBvQVD86ND4zNQV+aM/u334K78wjO+cJJXczdpZvB7MBtqKIkL2E2TEWrJyVR4NK/vxX06q+gHAGI2UDu9p2s18oBH5PjHgLoSNQXsrZ4Cx3/9iP6XABS4nLvZ332XI95fPb9xIf8PSHrWSh8JTmkZcrB247t3AR2hYWAMZdEox6sPQvLRFnMF76+E51qukxSUJsKSTN0cWmRyAoh86/4Yk0F8VIIeF1MoiMxezNpFssS34wSdfGDrE+y4nPIyXuohkRZyOtPL0Q+/tccPjN9QzWpDzxJSWEKEmBy3EVAKicxPZe1hVvofOsluofmClkh85t8sWZrMF/jY3j9AnFJOaRkb8aQKefd3zbM+1al3FX+fSpKdUjwMel04ZOmoEqXozVuJaPlh3zQdL1iHxdHlllOXmnKnGNr0reyPn36Lx+jrgYGQyd5xWSTu33XzLc1Me5BkqQnUb8ZfeEhPvrP32C/BhEfrd3C3aU5c0K3opM2sz4p5MAY2MIJpnBMtdDB72cRJGsQZAJ4L65sYpdkKtTM61kyfdS5NqLQE7i7kj93vHFrhDvMJzYBmRTwu/BOf8ReOcnFD5LoTcBpeW2hF1WxmdxtD5LiPYr9cPDQSssxKrGKLdtrSAmx3dFaPSnZWzGY9/CHd9oWtgPLtUWwPDs8hdxgIq84gWF3P+qHd2JImrWb6vQckmVjvDM1qhBl2Mn903HUfg8TXh9IlUG7UmzCsv95TszEnXsIJG1mfWECif4u/nBsYbjMXUW1FBQn4Gg4Qjcg0Wyi+rF8quvs9B1v4eDBgxw/64qsTqwCKxS+LuqfraMeCK7Q8Bsez7fT8P1d7Fl0CN/H8Zd3sP3l0DQru/viaKj8TlD02o+9zi9faeSsBxA0bKp7iidMJh5/zMyTL7ZefWholfE0Pkdd41Quv/Rzdn8t4yop0qmuLUMbbafll8/xSqt96qMQ0BjL2LbOPucjcdU/R12wQBDKnuE3j+djb3iOXRELWAFBrkARDSiC0+5W9SP0dzPQ72KtYQt3HXKhNuoJ2PYyMk6YGGkPTvOHDLQ3YbOOzORDSCyneHsd2tId3N373aDneB7qbD2Oluf5Q1MPXqTIMusor9mKdlsdmdZf0L9Ip0eeuomybZVUluajVQC4sZubaWg4yKkFLyKaK/r1AETZzizRAOhQKwFcXDofqcc5mawv16KN9XGxcw8f1bfhCUCUsph7/nIHa7PrKC6y0BRmMpxEvxVtzz4+/M8mnJchKtHElkdqSdFXYUhtmn1fjrdp+Ke3g/9Xmvji39SiPv8+9XsWGeYMg0RXzT1SF9b3nueTXgueyyBLLCTDKDDbrqykHJPJ2r6L9VqBCcv7/PGDAzPehSjlBvQVW0Ku72fo7W/xfwCQkvzQv3JfnhDZrPukAhJjIWA5jT0Avv7TOMglMbMAFT3Mjb6PJ+2BOnQqcJtf5dB7wTIRUoONXGI44SspIP+hCuKlLmz1L9HaMcgVpMTl7uS+hwtZc9U3rET/QDXY3ufjQw3BGfoxyaiNJlQznREpqpJdlBSmwNjHtL69j0HHBCAlbv0OtnxlM3lfrmH0td9wYealpZFTuZV46Rh/2v88J3odU14oKXLdVvRJYyzQPsoKCop1SMa7aPvtbgYcUw8riecug4nEwM1ZZsfZ9A/8n6bg/+VFP+Ihk45PD/0vGloX6+CqyawJil53z16O/D5YT5CoSTbtYkthBV/Y1sMH77St2PZ5O37B2x3B/0et/zY1X8nF3f4873+wiIBZEjWpRh3gY7S3O7y3MKma+5+qmZoo6WNirJvBw/voPLOYd3EhKmMu8cCktYNwEb4znD9JlL+WK0mbCUjeQHpLDcNLkalzyXjAhBqY6G1iZLoD4z6KxVJDYnYuev0aRnrndgRlhi0kSsHd28To1DOtqBxjiineXkNKbHCy4LHWqdhrRTY5X95FnrGOL5yz0NQx7y0vyxbNJTI7PBdVUR2J/i463trPwLkRfMQTl74ZvXK2Hl/xDjPSto+BzqOMjl6ctRHrd3Dfw5vRP1SL7d+mOxF+LrQf5WLhg6gLyok7Nq8dkWxAb0wAfzd/Mgfrpu/YPn6Z6sFUuhFjaTV/W1qN23aSlsZG6puPM3SdTcptF1m5FMLGGmqMCrAd4IWXGzk3bb18do7veYVG4/NUbayiTNlK/U3w+i4LIYNUDeA009gaKnJ92M2N7F1dh+wNwI+js4uJvFzWGj3cpfUx+l473oBu4amX2zj5TtuCw77RJk60bkFr0qMxpMFQGC/T+UO0NU1P9vDj7d/Lic5cKgpz0BuT6Q9tFAUNxtJtbNtWysYMFdGA226m+UADDc3HOetarPnTcEWtAexEOZZYwCpGiUwG4MEdqRcp1RTsiTsP0TYlegGuuNo48cEGkh/ZSmJBOapjby00iN5uOqcbc+DKaAOfmE2kFCag1qphaMlmbVlIYsH+1vMc659tRLyjbXSHrtqxgnKMyqwmRxt8/iP73w4RbHDFdZq+d8LEOa4AlTEXBeDo7wrWLXcXI+drSUzKJS3xLZyhz6HcikEvh/GjnHhvtkx8QwdpO1zANpN+weRMwVCOLhYClgOc6JgOT/FzqWsPnYYcSrKvNlFGicy1nw9/d3C2Ebk8gr3jN7NLpsUUcneJDonfwvHf/ZrBGZvm59KZPZzQ51CRt5n1+v0cmW7sJTriVcB4NwMzojeYxmNtossaJivqTORSCNiOYHWEKPzARS6ceXuRYfpbjyhdNXeny2HsfY683TRbfwIORj7YQ6/ux6w3mEhTtNF/k1cuAJCtryNPK8DYh3SZw3WcfUw4h7nkcuFDQJ6k586EXAxfyUGd9BKHmiKY3KWu4p7iFPBb+OTwVSZTBSxEOYGETK6oYGmVfANIquGh/1Uz95h3GFvLXjoOd4S0mRPYOrqYyN5MckEhQu+RkN+SySjUI2EYa/u1TYZTlVSjiwV35x6OtIZcy91D9+8PoP1WLYlF5cR1zBWGy7JF84jIDs9jjcxK22u/YmDmG7/Ipf4GToaeZH2bPy6wBX48Z/bySV4hJfoctFoYmT5ntAmL7X4KtJvRp749x5kxPfF0sucIg9P39Jyjdd/LtO4TUK4rpaqqjNKN+ZgezcdU66TveDONjY20mO3XxQv8mRK+WZuMqICB5hDRO8M5jp91UqVNx5glUH/8Vt9wwonHB6iMVJZo6Gu9Ph/ADL5T7H3u+xwAfK6h63KvK7Y2Rsa3kmaqINpvoa336l7QKEUy8UolwtS6nBKpjwAgi1UCC4XvRUvbPK+lH0dvN5OFm4nX5SC0juBDyaa6v+XRMiMaBeC2Y245QPPBg7RENNySwBUFwEXuuLx4fC/S2aGkQITLfsq1ehTAhLVjjuiDqffn3craBD13KVgYhnC+Y9bLMYXn/BiQgKBUsqot1dhRuvsjX24n0nJUG3JYA3za0bDg+VePNNIyE4BhbDMhECOMnBsjLymFZH0yXaOzHaSo1GxUQMDWMeMRmsbT28FFk37BslIqvQ4JMLogxGWCkV4rgeycq6xk4mO07dCSHvio9GI0MghYmkJE7zR+HL0WAnmFqDJ10DvlqQq4mPQCsTlkGNQ45ojfRRgP1ok12i3o1F0MOG7PZZZUxuC35ehoCuNFG8RmdbE+QUeiVkr/qq/TuzyiEqvY8nAu0X4rne/sXxhrP36UP/7bIS7Nicdew11Fu7jPlIO6tI67zf9A1xICiJhs8r9ajVrqYbh+D31XNQ+XuOMyQDxXFNHgWML23Qi8Y4zapkYopAIyRQrxCSkkG03o+i10W2fblyv9TQw6N2NILydNcWS2Y5NYTkYScP4IlqXe1VVJngprG8PWfnphnXJ1Y3OCOkGPOoaQmPjl2aIFLNMOA0z0NmCNuGMnRVCmoFDIZ2y34PcAcmSK0KEuB4PtFvK0OaTlbaBzaPodrEFbkEs0HqwdR8O0rT5cZ5vZ93Iz+wQlxtIqKstK2VRazeOl1dTZTtK49xX2rXJ86mdI+MrRaIOD5hrTU/ykyAcICCHhf4JKDkSjUAVXobil8Zk5cGCATV/LoPRvd7PpURtn+84y0NfHqeMtcya2rQ4e7GfPRrYA/0oJTIU75CkJWNqwLeoFlSI31HBP+VZSEsJ7xiTS8CsheB1jC45dGR/DC8Qr1cgAHxqMRUHRO2lrZs/Lb9B8bjnvM2am5tyxVPvo90wNNwlIIqxpsmBsBJ7zwwt/DIxxyQXIlMQrgHnGK+D1LBjemhbcq71cXMDRz9W7LcstxzUo1ErAw6XzC8tx1VAXk5wAOLsZCWnsnb3dTBRv5U5jIfLW2Znystjg2qdu19jCBm18DI+fecJ3DTJF8Dm8roXflc81xiRcJdxhDOdVBKZMmRCMwUuq4r5Hy6eOhrzPmGDcn0whJwqm8t5N3zEr2goda2v+Gd34MA6bBedQP7beo9jD3XO0gW7LVor1uRR/61/JHbNyYciKw3aaEXPHzAjDrc0a4pXBCXBxBbv4ojHYPoQiKOWAgEwhhwi+7uuGcgsl22tQS8f40/6X6F4wOQ8IOIK2YA4TXDj2Kicz/5lifQq6vEy6QpaPnIMkjayaXRgS4NO23fyxI5J1xC9P2buYW0M5uJpo+93cFS1kuu3cu/1+8mp2MrknNLStB4t5GEOpHn3e7MjfXXmFxONjtP3jawx/TEGlBJCj3fYPqP0w5/uSgkwV/F0WC0zXmWXaovlEZofn4rFZI/Bsx6MpqSO/KJc7Y8O3tVFSgdAYL29vEyPeHLTGLSQ2nA6GQSg2k6GXg/MQveeu0pn0uTA378PcfID0ssd4YkcpWm0+m4wqUfguzvR2EJP43B6COwj7mLOTsOcsrqFJBpy3urcXwMe5d5/lmaFtVFcWsS4jHWORFmNRGVVfq8X85s/42btnb1gw+Orgx966n15/JhfN4Xp/QYTMHVTUbEbhH8bWdgCrdRivN+ghlGirua8iZ5GUhI9rCjArQAEYouVAA6nbSsnXlvH48yXU9p2ipbmRxuZTDF31pV6equ8x/FkaDYtNO7nswjsOxMqJU0jBcXUv0tIC2bdsIX29CAR8VzWeyy9HgaipWMVIPeQrQZ6ZGxSqUj13f/Xbsz9Ig50OkgpIVhyc8QpNv+vwDmhf2ONLpvFf/d2BD+9VBOV0pyHg9xDwz8R1hdzHyqgbAkOeOSENztaf8uH5+1lfUIBGqyMxO4XE7K0YKmoYPfQSH7X2z8ufg4Hf/S/cBdXojTlotHq0CXq0eRXkVVjp3f88J8OuWHIrEfJtBTxT39fcih5wWPA6fDgXDXG6ASgKKPrLOrSxLobfe4ljEYyKzeUio/1W0OuRqVOIYn5ZAqhJ+/KTFKTLcZtf5XBjhBPtiOHPUpi1f7ceXut+Tpo3U5GXg96YRn/r7GjSpY4mHMW1qHPLUbW+hVOygbXGBPB2YQkbSrIMJMKMmpr0TtuE0LoIbls3bv8YoYv4LNcWzScSOzyfSf/VSlvKXZVPc19xCji7sTQcYdjhwucPrrmvKtrBpmzlwmSX2+ntdaHNy0VvWMPImYmZ+OmL5qarjuDJUzdSWllJWelGslTRgJuBk83Ut6y+O+62Eb5Xr5ge3O5JwEff/p/x4i0fyhAJPoaOv8srx4MrHss1Rkq/VEutKQtjzaNsa32W227HY8cRTn5wZIkT4kkrKUSBiz/t/+mc2CWAKOXS5RotkwPzGuEYedAzFrg4JVE9nG3cw88b96Jct4mqKhOlm4qoeqyIqjonfadaaG5spOXU0CI9bRtRbiAhnj8vuUeIFbvDx9pYJSptAliv7lXxeaemMCrkLAxNUKKQBPM/ect72VZSjh584z6Cw2hzvQmrh5pk41RceawObXa4c3ToDPH0T211O1MmsjBea6kSYcHkNh+T3qBHMTpmYZIomXxV9mz0eV1ACt7+/TQta/KUH0//QU70HwzmR5mNrqSG3EI9iffWojf/49SqGaFcDMYXdwBIkaUWknVvLev1OgwPVDPw72Fizm8pPHi9PsCH/fBL12HL4VUgJpv87TtZm+BjtOGlyFahCcOVkFEeCcwTRvEkP/Q0JdlKJix7ORRulYFFSZiyd3aiXDc5zGFR/LjPuwAl8UkJRBGy/KPrKJZzNaj1hWSk7qdTtoW0WJgwNy0x+hghARc+LxBrpW//LxiI6HrLt0U3BEkhhrwUJN4uWt/4l9m4XACkRBcuZr382NvbcedVkFy4GdmZbtIK9UiwYllsxzt5KhtLK6msnJ1nM2k30/xmAwebWzl3nQbmbxPh6yO4A6WAXAHh1YiPs31DUJRBxsZ0OH4Ddojw+YKCXCFwHfd0mcFjN9O452f4NK/yeH4qWekCYRfBmwz6IIWwezouhoBSE/zwcDuntp2+GSQQrxQIbnox34skRZ0ejJ1crPMYp9URdWxu3KIsKQUZMOkYnmfkfbjOtrLv5Vb2CRo2lm0LVsCiKh4rqqLOOcCplv3s3Xt8XgjIRaLO/zek/wVX1H8B/YsMJ3KREbOVQLqeO41biGu9+qoJbtswARJQJOkQGJzb4VPoUKkA/zCO1VIZ/ql3uepb562kHP04hoYhW4dq2TsX+QkQFJtLPooiF10S4O+i9Zf/wuC8BkqW+10efDgHtSEXoSM4CcbrGGYCPWvUYdZSTcpk4YaSfi45xoAU4rQ6ODP3+1Ak6cJvt7pMvDYrbnJQaPXI6VnxUO0VVw8DH7xEQPmvlOhTUKul9LmWjOHBO9RG134Psr95krUJOlQxLBryIMiVqBTRMOnG6fLcpFEqP05r8NtS63TQu1idXZzAdAdoGXUlAEssXReCJJOc7bswJIGjZTcfHQuzXndEHUSA7AAAIABJREFUSFGlB5d4m3CNzXvXa9BUPs2WvAQmz+2jaX/T8r6ZmEyuxALj/URFIkgEORpVcFlRt9PFjWpSZMpgaxxYMLJyEWtHF/n6QtIKC3HG5BKNC0t711Xf9dXL0croeR/6WB3JWikD/RF0rFZgi24IsQnEyQBbD44FnuYUNIlLqJ2hBiznK8jTbiHNkIw+CQLnwsxBSC2hrraa0o0ZqKKBSScDxw7SWF9Pc4QT2q7FrkRUJ28+doaG3EA6+RsX3yDY3tqIeRI0pY/ypfRwvRIBzbp1y95ieFE8AwzYAY2RorD3uwYEDamacNdUIFdEAx6ci4Rs+Fx2PIAqfRnPKmzisRd3s3v3bn7+mHFVPFIrwzM1xJuCOmluvywq8X7yjGGGWEKIzjShm+OFTZuatethxLzIkkAAPjunGvfy4jM72fn0C7zZbMYlZFBUWca6BS9jkijLSe4AAun5/HmJ/Hg7D2AdB5Lup7gkc2GFi8kmVTe76qzP2sGoHyTpJvTq0OeXoioqJ1EKk+c6sK/WxC+vC68fUAXFy+qxsnL0mI8w6oc1hhrydGGiYJVpxC2ST6/DAwjE6cKsFDKFkFmAWhqcqDZ/IiCAt78DJyBJLyZ5+j62NkbGAW05WYmhzxJPalH4pckumbu4CMQbymevAyDZgKEgJUyKFTB6BMt5HySZKMhVhz0lSpmJKrQ+SNTIleH8HXJkMoGgZ3Reo61IRh7unUuVwWW0pr+hsAhsfOwldu/eze7dj7PpJm5S6DE3MeoHRV7tvHKcRoosNRNZmF8ALp0fJoCA2lgYkX284g7OLViTpF/aMSJJI7PmSfK0Ap+2B9e2XlqIrSEuNS1sHgRdLbmG4ByWIbNlTpq7yp9mS3EKAdv7NL3VsMhGFUuQtJmAFDh/OKJ+srz0O1Pl/jyPZi3zXiskKtHE3XkJgA+HZeESJVcsTQyOwxpjHfl6OYwdxbLYJhHTaSIqxwlGOrqYQI62ooa7wtqoeFSpyTNtwIps0Y3A6wnWZ2XmgjZBnluDPmGpxCMMtFsISPXc/dBW4vEx0n50waiCkFVGVVEGgt1M8xsv8PTOnTzz4l4aI17F4drsyg3z+MrXlVFdNL1zmUBwczE5GaZaaoumDrv7aH73OAuXZ/Vx6mAzttIqjHU/4eebzMF13nwDNL/xLqemu632Rl7fW8pPHjPytZ/8HGNzM8fNdtzRCjTpRvI3bsSoMfPCjhdXabeQszQ29FH5tSyqf/Bz0k+dwwP4nMfYv7d11kuoNFJZtXFGhMqzgj4iVf42ahXTmZ+3i518I4+9WIvy7ClOnTTTZ3dCtIaskioqs2ByoIXGxZzafa2cspsoy6jhJz/J4FifEx/gs5/iYP2pW3xa3wjWTit3m3QYap5E0nqEYZcPWWox+sJcop1jBBIWr3mT6Ljn0W8T19qGwysnsbAKQ5JAwHaAT3oji0P0nDvOu68c511Bg3FTKuH6F3ecex/p+EP4tPcSkPzfxde0DJzm5P4PUT1yP+qKp3nQ0M5gbz8X/fHEa3PQGvQE2n7I0PQMZPfHdLWVk1iqI+/rT6NobWJ4XECh30JOng78VroPLR4fvWwCXVgtHnTZuRQ/+l2S+61TImaEwcNNC2eTR8wKy9HVwImGAr64LQfD9h+j6mxi4NwYk8iJTy8gw6hkYM+P6A7TUFyytPPpvQ9yZ/EuvqjswuEITvbzWhumNrBYQ7IhuJqCo7cr/Dt0d2E7X4s6SY82Xcpgrx8Cp/nkcDfabTms3/400VNlojaaMOiDoysLPLijB+k0b2arcStfeESgu62DiySgLa5CJ/MQQL4KTvZBet/7EO0jD6J9+MeYDB8z0NuP2y8gU6WRmFlIcrrA4H98mxPTnhtZLsXfqkFm68LW24PT5SIgSSAxz4ReC4HzRxmYZ4CjtDVs+7IOZ28X1nP9uN0eJIpMtEX3o5WBu71pwWoXtyTuJtoaivnithwKvvFjkjuPMDj1bSmSskk25JKi6ubjF38Vdqtbn7kBa0Uua7N3cP+jxYw6gqETjva99A+FEU+2NkacFei11VQ8msaIzcWkH3Cdpq9jduRAlldHgV4OeJAkVXPfo9ULr+Vqo+2dhqkRIyXJ235MnmIYh83KJdcYbr9AXFIuWn1KcFnGzr18EiroEqsoLtURjY+JmFzueSTcPIlhevf/et7Q9jTRBLLz+TOXkXYusUX7jURZTsnXN8zOe1AkoEoITkSdPLefk2fChAcETmMxj6EvDk4M/bQr3Aof84iwHH29ezlh1rHVeD8VO3QMdLQx6vBAjBKFdgNphhzudOzjv347wpWV2qIbweV2Bs7VkKIvpPiRb/JJ22ncl+XEG7aQZUzAO+YhepHJygBecxOjJj0psuCmHH8K0+76+hr55XOvcNx84zatCOWGCV9FViXV1fO7fQqyyqqZOepuoa/+eNjJRb6ze/n5C7CjthRjfunUDnGpDOwPEb7AUOPPeMZZy45HK8k3fY180+xvk84BTja3RDB5KXKG3n2Bn/MYdVUbyS8NbhWM3U1DqPBVbWJbdRXaeWlVRhPVxum/5u1i57MzcM5DmbGUKmNpSKpJ7OaDvP7LfZxbLFM+M6+/8AqTj36JovRNmKZ32LNByy0vfMFzbDet6l0UF+agN+WgDx7l0849fNRbwBdrFhe+jsN7uGTcwfptuTPHJs59yLF3Dka8OcMMPjvm1kWCqAMfIfT+N77C+/CnxyHtX/zqvqG3aPqPEfK2VZOh3YxBu3n2Ms5uLNbQEvHjbHqJj9hJcXEOepN+6vkh4Oyi8/d7ws/yXjETDP3+JY5frsGQqWdt8XSDaMF9rGnhkmnLYKXleKnjJT5013BPZQUphTUkFs5ckYuWQzgWC0ocPcCRdwQK7i1Eo9+KeipmbiL2dFD4SnLRpgvAMKMLtjCeZnopoQSSjblE9QbDLTwdu/lItouSe0PKxGvF8s5+hIfqWOhjvsjQey9xXLKTguzN5D0cLPPA2FFONPi4++GtLBkeHiFXRt/m0BsjFDxQQ0b2/RSExgn6x3D0fIwt9PPyjuE470Gfvpn16ZtDfvDhtnzIid+/vUAIXHH2M+rMIdFYgdpYEXJ9F472fbR+sJSHUo5GE3zSyXPmBTsg3mg8HS/xh5BvK6Vw9rfAuJXhzrbFO3uB05z47R6uPFBNmraQtVMGXXZuX3jhG+ih43d7oLKKVG0heu2UW2oMBkMEU5R0OjxHTrxWv/A6AAprSEfJg9sxRiApJTgxMfQ87zC21n2caJ2/vfH0PQTWJOgWWVFECO56FpZ8/Ia/gPEGhJ7IVlzRpE6N6rj7ODkQUZLlIUtAnT5rQwJeF25bOyOdDXR39Cwau+zsOMqnxQ9yp9+CxRxBHHWE5QgXGXrnpxw6X8c9JYXoK3KYLU0fk2MW/mS2ToWWrdwWXX8uMvjOq6hqdmBI30rBw1uDh/3DWBt2Y1HvpGIJ4cvldiyWWlKy5cGNRMLVp6HjtC6yhXZkXJtduWPdunVLjdTe1shT15GhUSD43DjtQwzZb1Z82TUgKElN16JRycHnxD5wjqGbOev4BhIVk4wqKYVoPLgdFi65Fxd8dz3wCyoLExj+r7/m8BmQqfXEKQUCDgsXXNdpxrnyr/Hs/HsC554l9q23IvKCRCmSUakTiJbCpMuK03FxcWMmiScuSYdCFsG5tzDLKce5SBHUOlQKOfhduB3DeC7f5ElJMWpUSSkIuLhkG8QbgaczSpGGKkmJZHwYx2gE6+aukJlvCx9e9xhuh2NxeyeJJ06dgiJ2+t1ar1ouUTHJxKsTkMkEAt4xLp2P4PnlJTzz6t+SH22n4bkn2WO+dWyXoMwkTilHggevaxi3a+L2ql9TZSiLlQe3kh4fxnmdvq8/G/437v/PxB0tNSgOnYoghZJtP3mNR7Ng4MDTPLNvUTfNDScq81s8uH0z0Za9vP+7pmVM7lsOa5An6lDECuC9RWzXChCUmajUSiT+MZwR2jtQk/XoP1GgddH7H+F3WL1mrtGu3CaT21aGZ+gs5uvx0m8kPhdDZ11hwj8++1y5PMKFCFZCWIgfr6MH7/XeWci1j5jOWjyF32Ay6f8Sc/7qM52vuEe44I7wmQIXuTR0evme6luMaylHn6Mf+83eISqUyw6c1uVl6Ip7kAv9i8xqXkWW/W2NXuTSMhbtv3J5BOfQ8spRyMonIxomzQfYfwuJXgCfq58Lt/rw11KsoAxXRia+0vv483gDspZIRC8gz2djOuBsYf+BW0f0Qjy6okLWTG2ocH1EL8AEntEePNe9bK4vPlc/9mXWkajUKgxaAc4fxXKdhMu12pXPtPAVEbm+XELy/14gWv3XXMnczJ/PH741Yt9ERG4RUo3pCG4bjW823/IhViKLkFRJgDMIDf+INMJlv4SMdWh9bvoO7uf4au+1tAKilGnEK5TEGarJ1wswdojeCOd8iERCPHGJCQixegyVW1HgYbit4bo5ba7VrnymQx1EPj/MDXW4/YaURERERESuB1KSv/yv3Geciksdt9Dx1vP0repcic85yiq++Dc1BNeW8XGxcw9Nv1/OGtE3ls+v8F1Xy08eLw2uIRcRk/S9+Swvt94C3VeRBQipxWjVctzWpmUPzYiIiIiIfHaRpW4hWS0QuDyMw9KD53ZYheR2QpJGslGPDA/u893YR2/ilt8R8PkVviIiIiIiIiIiIp8rbpMNLERERERERERERESuDVH4ioiIiIiIiIiIfC4Qha+IiIiIiIiIiMjnAlH4ioiIiIiIiIiIfC4Qha+IiIiIiIiIiMjnglt6AwtBLkeYc8SHx3Nr7f4jIiIiIiKycqQIMXNbuoB/giviklsiIteFVRK+AppNtdTVFJGlUSIXAIaof/YZwm/RLVD2zKvsMDppfO4p9p4Nd8466p7/KSZN6DEzr3/zORrFpXRFrok1xGXmEicF/GNc6O+ft9D2GuJ0ucTJAMa40Dv/91sYSTwqfSHJqWkoZAIB7yCO3nZsQw6u3Oy8fW6JR2XIQQ5ccXYzsuw1LteQ9pf/THG6i97/+Ae6ItoGtYCiJ3ai4ygfvfxr7MvPtEg4YjLJNNVgyNQhkwlIgEDvHt59p23F9Ssq90m+8nDOnGPu9ud5/4Oea87ufAT1BpIzs1GrlUjw4Xb0MGpu54I73GYOIXYyHP5h7P2DLHBFxaSRbMhFk5RMtNRHwDXCqOUoQ7f42q4inx9WRfgK6+r4wXdMaCbt9JlPYff4ACd9zqVSKYiO9szz6IZip3n/GwzJATQUVVdhVK1GbkXCse5Lz/BoUTTmfc+xz3yzc3O90aF/YCcGFcAYva9/l5OhYkKxmXu215EoBfztfPzirxi6DbwvQmoVX/hyNSmqebWqtJbJnj28//aRhY3UDSGZjC/vQK+w8slbv2HkNniXixGl2859FXp8nXs50jEYWaLEKrbU3I8CYOx96v/97WVv5SlBjkTqQbKcNFIBCcKy0ogsRTwZX36STXo5k2Pd2K0uAkDg3Ng1dSqvDDVwvL4DAIm2nIK8lGWkjrBuSTaQ/40d6JOU876HCjC5GD70Kn9s7ZlnH0LtZBich2j837/hwsyBeFIfeprivBTm7wtlqKjB3bOfI+804LyN67/IZ4NVEb5ZpiI0TGLe+32ea4xk2ywffY1v8KbZx9lFXREuzjbXE3QGp6OpFIXv9UNAkZFFVpaAUy7ATZJHNx4fAX8C2rxMTjb2zxyVGbaglvoI3EaiISrxq9z3yIOopR4+7dxPV3sXF90QrdSTXGgiSyFHws0qWTlxiXrUCT5kUuB2bvgUKSRq9bjPyyNOEmfMRYGPgF9AkpCLVv023Y7rmEeR64OikAy9HJyH+OjfQwXfNeLooH/qe4jybiBvWcI3wrolS0ClluO1HcXa2cHI+WF8fiVxRhN5xbmkVOziC+M/5HBXuA9zGOuhIzjmO4W9FuYOviqJT0oBZzd/6mjDZrPi8YIsaQs5FRUkZtdy78NjfPBOx+emhRG5NVkF4SugUcoBF7ahyPeKHTpez7vXfnMRkWvAysi5FLSGYlSN/QQHKNSk5unA1s2oOpeUWzoKfpo0DA8/iFrq49OWl/hDU/+MB8rjGsFpPYJFEX9b683bl2S0+hTwd/NJm0BeqR5tpppuh6h8bzsUycgAXIPL9tjfdLzddP7n33NhKDTcYBDn6Gmcl3/E/RU6UkrKiesKNxoxhq3tIINXNSBjjNT/EMvQvPCH0X5GHXD/NyqIN1SRpuig333tjyQislJW2KzLWVdWTVEqgEC6NhqQk1VZR+3G6U/ezqmDjZhDtHDqpi9RlqUIuY4T88F6TkWulyPPX0klZaVGtCoFuO3YTjXzbuMp7Kva1ZSTXlJJZZERrUYBbifOITMtjc0cHwoTiCxPp6SyilKjBpUC3E4b5pZGGlvPseBszSa2VWYh9DXz7vGhOT8J6SVsK83AZz5I/czLmy4TO6cONGPLKKO6chMZGgU4B2ip30+jee6LTi2ppSwDQCA1PTg8nlpWS23W7Ety9zXy7vGFbnlBs5HKbWVszNCgEHw4h/o43nCA5rOLBGAL6ZTVlJLqNHOw/hSsq6S6ahNZGgU+9xB9zQc5EO49XFd8DHd2cddXCslIfYuTQ4CykLVJ4DjUhrckd0ENCcbIbSBRm4JcIScaH26HBVtnA4NDC2PYZJkmMnTxXOw6wIWYreQUF6NSQsBlZbDtIANh0iyNgMZYSmW6kwP1p/AAUToTWUnAeDtdh/vDDrv63OHuI0Wm20pWXgFqpRzw4LZ1YDnWxIUFDVMaqSXFxPt7GDhmQba+iiyjHkUs+M6fpvfwh9jnxAmqSS4qR6MAUJIYC5BA2r1fJS7kNEfX2wzN14CSNNKKi1F4exjoOE0gtZyc4qk8jg8z0tWApTekcY1JI9lQTHJ6CgqFEpnMx6RrmJGeJgbOhIlBDEGWuoWMvA1o1AlI8OB1WRnpbMJqnY2JjkrcgsGYHAzLUge9cYK2nNzyDbPv13UaS8f8oWJAWYg2CbB1YO2KJ61Uj8pYiOxYwyJx4/HclVuFwahDIQX3+TZ6W9uXeILg86eVVKHTJiDg4lJvE2eukkSmM5GRGY/bfIBBRwLJhVXoDSnI8OE+34al9eN55QlRyg1kFGwhRZuADB9elwVr20EGRycWzVdqYTk6XQoKmcCk14XX0Y/NfJSRRWLOo9QF6AuKSUxKQCb1MTnu4tLQaWzmduyuRe5zPVEWkFWQGRS8sfrgv8oC7i5Xz3QkfUNH6O4dWZBUllpOVuEGVEolkiXr1nJZQd0KjHBhaMGFALjU28XFCh13qlKIk8ClFfeQJ3AOhQ//uTLUhn28gvjYBO5UA24ADSVfKoFTzbSeW3URICKyKCsUvgJZlduozgqN5FGQUVpFxszfNmgJFb4CqaXVVJeGCl878mOrLHzlRuq+9xRVWQpgEqfTg5CehTG/lLLKBl58bs/q3E+5kbrvPDFzH7fTgy81HWN+EaVVZby56xneDdGLQmolT/3gMfJVwKQbpwfSs4zkF5kwlb7Ccy82z5mAIqQWUV1dhvzYAPXHh+Y0qEKWia9VG7HLj4UIXwVZldVUZ9nQCJswVuUjd7vxCQoUWVkYNxpJ//kz7DFPX0kgvXQb1UVzo7G0RVVoQ/52NpvnCV+B1LIn+N6OIjTRMOl24vHJycoyUlRWRsnrz/Fi49BCASBkUFZdjdEuZ8C3jUcfy2c2ciULY34qzrPPUj9fYxvrePGpMlT4OPX6Ll5uXd1BsivWI4yMb0ZrzOTkUD9yQzFqLLT1utCUzDs5ppwt36ojEQAfE+MeriBHnZ6DrrACQ8tuPmqaK37kBhN5hQk41Dpk2bko/C4mvHLWaHNIMW5G+97zHOla2GguYKrTZDJtwqhRQN8bwQ4EoDLksAaYtHUwGnGjtQZN5dPcV6xDAkyOuwjIlCSm57K2sJwz+5+nyxoiNCQprK14EO14CjJtHQajkkmvD4lMjkSbg9aQxkevvcbI5ekECWhLHkQfG3rPBFKKH2R2INeH7fwBhuaPoUp1ZFQ8SIpTjttvIv/hXNbM/KgnMTuFwL/9I30ugGRyHvkxeUnB602Oe/AhoNLmkGKsICdvH037G8I05mpSH3qSkryU4AQlr4tJv4A6PRdd3v2kvfd3HO4KPn+0dgt3l+bMCXuJTtrM+qSQA2NgCyN8ZZkFqIBPe7vxOATszge5M6mAZEUDAwsEUDKZf/k0m/RKpr+vuPQ6dMYChhcTS8pivvD1nehUgN/DhDcFtamQNEMXl6RAuDlLTH2XxQkMu/tRP7wTQ9JsXLg6PYdk2Rjv/P701BEp8tydVGwrRCGdflfB716bt5WM+uc50jEyV8gqt7Dl0R1oYwG/C/e4D3mSnjX6QtYWZoaNmxcyv8kXa7YSL4XA+Bhev0BcUg4p2ZsxZMp597eLdRauI8oCckq3hnx/gCoXQ2nuzJ+BnkF6e0OfX03qA09SUpgyW7ek8qm6tYXOt16ie+haRPw11K1wSKZCurwefIvaDymCQo7E78F7OYJrLkCYWjvVw+RMISrJMn2Nqq99jccGTtLSWE99yynC+YxERFaTFQpfF/XP1lEPBFdo+A2P59tp+P4u9oRdoQHAx/GXd7D95dA0K7v74mio/E5Q9NqPvc4vX2nkrAcQNGyqe4onTCYef8zMky+2XqNnMZVt33mKqqxonOYDvPLKfk5NuZIFzUa21ZbhE+ad/0Qd+apJbM2v8PPXW7H7QEgt4fHvPU5p0Q6e2NbHs/WLdMmXhZbSMh8NL+xi73E7PpRsevwHfKdMS9mXStlvbiYolX20vlhHazDXbHziVb5XKnDshR28eHxxcSkY6/je40Vo3H0cfPll9h234wPk67bxxHceJb/uCWr6FlvNA5AX8Wgt2A++wgv1xzhr9yDXGCnatpHJyXAJFCgUChSAfP6MidXA381Av4u1hi3cdciF2qgnYNvLyDhoFpzswWn+kIH2JmzWkRmRIySWU7y9Dm3pDu7u/W7QczwPdbYeR8vz/KGpBy9SZJl1lNdsRbutjkzrL+gP2xkT0GwsY1tlJaUbM1BFA5N2+loaaTzYMlWOa4hPSgDAPWSNeJKNkFnHF4p1SLzddLy1m76hCSCeu0p2cl9FDusfqmXktV9jn98QxhaiTzxK62t7GHT4ISab3O1Psl67mbvzDjBybFrE93Di5W9yAoBMcv/6+6xP6KbtxV8wcJnIkBWSZ4JLbXs4fKwdp2uCKGU22oINBGbaXh9e21E6W5qw9vbgmc6vIpucL+8iT19DcWEXfzgW2rmQoioPil6c7Rx/Zy/90573mGRSS2pJCWnbvR2/4O3g3COi1n+bmq/kRjjrPp5kow4JY9jPDQJSbFYXhjw9aZlrGOiaK37kRTso0CsJnD/Ekbd+w4gbUGwgf/suDEnhr5/2QB06FbjNr3LovTY8geAkxy3ba6YmZy6dQ1VRHYn+Ljre2s/AuRF8xBOXvhm9ctZCRulqqXi4EIXXwpn9r/JJf9BbKySaKN5ei9a0E4P1RyFxy1I099agjfXxadtuDjeenhGsUeoNZBSk4F0gsNLIqdxKvHSMP+1/nhO90x5hKXLdVvRJYzcnVMf6a977p18H/5+4nQcfux+FZS//9bumRUYSpKhKdlFSmAJjH9P69j4GHROAlLj1O9jylc3kfbmG0dd+w4UVP9Aq1K0QVMZc4oFJawfhA3ByuOepfyd6Si0Exq3Yjh2gs7Uj4nY0Slcc9Ew7u7HNTCQ+R/3rbyBUllG0MR/TY/mY6uz0HW+h8eBBWs66xFhgkevCZ2oDC2FjDTVGBdgO8MLLU6IXwGfn+J5XaLSBamMVZcprvM+mmqC3297Ayz/bNyN6g7c6xbsvv8wcDbtuG6aMaLA3s2dK9AL4hlp55fVWnESTVVlJ+rVlawZb8yvsmRKk4OL4m/WYJyE6ayMZiy+jEQEaKmvL0ODm2OsvTAnrIJ6z9by87yTu6AzKqoyLr9ahUOFueZnn9jZz1h4sII/dTPPefbTelNEuP47OLiZUuaw1lpOh9THa2R6mYQYut3HynbcYCBG9AL7RJk60WoAENIa08Lc5f4i2pp4pAeDH27+XE50ukOagNybPOVVQrqOk9gl+snsPu7/3GFVFqfjOtXDglefYtWMXz768j+az0y9LiUw2lY/xSF9gPNqiQtbgY/TQq1OiF+AiF1r30GnzgWozBsOaMGldDHwwJXoBLvfwSWs7k4AqU7+6BkWmJND5Kh81HsE5Ncx9xdXDYNPbDM14QB0MfPAa3WdCRC+Au4fuho+5iIDakIss9Loxm8ktTkHit/LJ7341K3oBLo8w1PQvnDizCsPqMbmkaQUY78Z2HsCPo9fC5FSe5taRTAwFeiSMYanfFxS9AO7TnHzvEGEDYpRbMejlMH6UE1OiF8A3dJC2w5aIhOIamZUTv/0Vff0jQW9f4CKX+hs42TE92VNNRsVWFHiw1e+m6/9n7+2Dm7ryPO/PYl0hJLAUZGFbepAUyzJGiV9jmbVJWvgZOxU7adRV7appZ7tgZ6EmobZI1yQ9E7KdMLvQs0nmaVLTMFOknwemNvR03L3l1AS6x56K3Qtugr2xHYxjWgG/jV9KskFWIgESRtdinz8kG1uWjQ3mLbmfqhSx7sv5nXPPvfd7fvd3fmfgVoiCeLmRtsZuwjIjVvuGmYah0aqBccY6z8/y0t70nWegqXHuxLAkI8ka4NoFBntmhkFMEho+RXf7+UdDBK0s5IkSI0mT/XT+5h9johdgkqtfHo3e85pNbLQkurceANoqnipOh8l+/ni6M+HAOXJtnKvubtwXu7l8KQCrjRjLdvPsf6hgzWLKSMrgiec2RfvQyeMzrr2It6uBowf28PLLr/KzDxo55xEwlTrZ9dNf8P6BPeyoLEK/+HmkEhKL4pGYurNYrEU2NMBgcxNFI2fqAAAgAElEQVRDc56SQ3T0+akymLBZBRoW8Grethx7rJyWBlyLOI3OZkUH+F0d9MbtL7pacAUdlBqs2NRw96FOfvo64tytAQ/eEKBRcleJMdR52E1yCHbQ3DHX0NC5DobIx2bKQ4eLxP7rQZpPuBb/Euut4+03GxGAkOfevPpuutsYu/Y06yvKkE/209Zz+7jbFao0ktVqBFlUviTJRCKAYrUamBvndqW/LW7SyCS+nguECzeRbMxGaB1DVNrY+soOnPkGVEDY30tLfTNNDc245g1OFxBi3+Aji23VJAs6gwD0Mzynrj7GXKNgMLLWYoEvz8/ePNnPqHu2G/Gmb5wg8JhCiRyW8XP0MP3tFxefKipJyxptCkIsvyoKISr+VFoUM+xaYSpgnQwiQ6fov4dzzISMYrQyCLvP44up0JtDnfgmC0k3FaNLarv1uV9lQZtCVCR74ty0l9sY8z8bFYYzWKHfgAaIJAhxCfV0cqXCwmO3sfF6TyPDC8WcrszBmCrAxFn6E9wX4nAnfnJYZ3iSNVyM9fEQExMikEJawZP0Np2/fZ+IBKKfwFdnY87S4ut5NPNOrzAVo1NApP8UI3MekdGBTyS3EE2GEXqWP0/vkli5gfzvO9HKQow2HKV3zr0wTE/dX/LF5dnXQmH8AZt/8CxaUzXF9rP8vn2hmygZ/XdfZmOKQNB1lM+/nOfZGvLQ0XCUjoajKPVFOCrLcdhtVGzPp6LGz2BHHYcPNjHfh0QJiaXwDRK+SnSG6MdpXcVr7LeLgIAww60iaJSAHJUmmoXiTsvR6zRAEE/v4tLC63TRN5bfnSD2VfTi9QIqDTrdXZg1TRB/ghdZWASQw91kK9OZ0MkBbNTs3Y8TQBBmeK5U0fCAmMBOKHz9QwwtJZu+6GVo/px3y0MkFu6QqybS34Z73s+FMpRZ1Ty15WnSUxK7IZJkiX3dE77xOb/dvDbOBJCsjgozUWXCnm9ARRhvey0/P9zAfHMFbyFOe6eTZEpI7BuMq4YalQKYGCeUoK9MBMaJYGSVSs0KmC1AEsUBTsa8WjJheT2+14bxL+J+WKHdTMFzTsymlMTp5+KecgptdL/gpeF76EWUodtgQY7IaE/3rTa80Y3bDemmbAwmGZ6BmMhVxzIGBMeYe0nGuRKE+FGrYnU0J2swkCCP7LVxQpPcVviG3LcJj9GuRyUDyCbnhz/hCYCZvmqZMur1Wzlzlc3ruFs/5YqpjMeKX2Vr4Thfu4f5yj3A5YHPcA8nErUX6G0fxlBm5PHq/wfjtVF87n78ngHcPZ/h9T2AiW13gEKdEs1hm1rFd7Zvif06o71WRvueQqWce2/dT5LWY63eTVYKfN12iP/dmWiewXVCCSYuTgz/mtbT2bxQZkSbuwlle/08IQ+rWLvlVUpsKYTddZz5bduiBsUhTwcNRztoqsuj+ke7cNo0mIvy0AuJHFoSEkvnGyR8pwRYGDEYQhQBxNi/MUJ9BDxhBv13c/dMiem4cy90RCw2NfH+YuxFJ0zvd9fcq4eDXB5tYzFISBSjxUz9C0CIIZcXgp4EL+8p28Lzb3tgTOJtraNnMoMrrs/mbT4hYwdl1ZtQTY7ibjvO8PAoExNRT2+Swcl3yrLnOXKe9JqRqd9jHkp/F/X17ThL8zDbt/PTPCeDrnaam5po7pgv48U4E9dESBVQqNUsTvjGypsUE9p1M/Z7Umy/+JfzfYu1nBRv35VV0UlU6YoQX7v+hf6LA1wNhqI2ygoo+MGzaOOCCpJiy8NGJu/hWzQpB0OGEhBR5b7M5qxbmwS1CChJs2WzYuD87PadTCSGRG4miNVNmoq5TGhA4msbT/h2bTA1mJkMIU7vO+OYyRD+oXEiwdnhPzeHf8knRy+SVbIZg9GCxlTIY6ZCLKXVBC8e4w8fnZrzBcTf+lM+ufQsGwsK0BmMrNuQzroNT5NVVs3lk+/xh9bEGUseJqYGvpHJ0Iz+NbO9hrkchIgn9ADromX9916lwKQk6Hqf000JspHchlD/Ba6UGUlWrycZEjybZKyx7+Y7pUYYP8mZX9cvbuEKQU1mkYOKCgdFttiXL6+LjsYm+iTRK7FMPDLC9/Z9PkQwGAZEeuveXnCC1t0Rwh8MA0rUmsW5T4PB6D5KTSIvoRqNCiA4y/u20FkF4a4Cde+coJ8goPF2cHhf7TyhDI8ovjOc+9czC+yQzPqSQlQE+Le6n9I+MNsTskK9cD+QK5RAnPdkZTQ0gMgVwgCih9ZjB2g9psRU5KCqqpyi/Aq251dQ4x/E1d5MU1MzHUMzXzOT+IdHwWJEZbAgsHD6LgAmQoQnAYUyGiYR90JasVIZy3QQeuhz/67JrSJdAVfa3uP3TXHCSG1JeIwYiLbffGEpy8EKQwFpCgCBZFN08lA8q4wFaDgfjXm8EWvrlasQiA8XUSMo5h4vTsQm1CoSPFdkaoRFTG67LcEAE8CqwFnafvXRkiYF3/S1ceF3bVwAWJlGms1JTtkmHttQQ/7Gzzg9J456ktBAPZ8P1AOwQr0BY0k1OYUW1j1Tg8U1lcnj4UWcCADpTAzUceoeLDl89yST9sLrlGxQc73/GCc/XpwXdi4LP2WUObvZUpGN3P8Zn/7ql3gXnHQnoM4swlFRgaPIhiEa58Vgez21TQ00d3kfjfhuiUeGR0T4ikS1o4BSRaLhJSDS1+sBuxlzngk65k0vcde2DLk8kG/GmmdDaO647U3pGXITRofOZEZJnOdObcasBsIeBmcqSTGMCMhVqjnRCQb93HwDd4cYc0cLzD8rDfD0MhQEg96KVQ1LWK/kzhGU6KIjA8J+L4EH9gRMIVktEF30Iv6FLUNriqYFm08orjEYWdEeFyuXmo4CCPtG414+IYY6Gjjc0YCgtlFaVU65o4j8iu3kV9TgH3TR3lDLseYhRG7l4Uw2bGa9+tQ8GSJmEBnlqh/SU4ys04Ln8uzNGlM0DdMV3+gyeaVupdBbIQPuYOZ5YmSoUtVACN/A3E/2gn5Dwsk3E5eGCWJBZSxg7ZTwXAIRbj8rWGOLpmC70vLXfHJqZLZtSRvIf+l1sjQ5GPVE86v6R7g6CckaI5qVcHVmGyUZ0SaYkDvhG+U6FlZp01EQF0ebmnF38fxT+AfwT8BjWgvrVnJHWQMAuDHGWOcv8MtS2FphIdlghC8XFoY3AxcZ/Nf3iKj/jhJLOlqtjN7APEp++jkRJugPEHpAz4kJ9zBBslEZLCi5uOTsQTdjAyBhnpCpuSzl3oqmMNycm0J4qJZTdafuOLuRkGqJLsF9bXzOFzxF1kuUfTeHVdfO0vqrX8yYiBqPElvldqqrYikagaDXRfPxeuqbOhhapHFKtQ6VHAj78T64F4TEI8QjktXBi8cTBEzk580v+rytTbjCoCvdzlZTogeHgC4zM0GaqqXhaW3GFQZVUQ3bbHO9LYLONGsmauhcB31hkNsqcc6yS8BUVY5NDkFXB10z71n3UDSvrymPvJlFqEuotC//2s1efxCQo7ea5te+YhdNLV6Q26jeXkTC5BhKE5mmZZyGa93O/kOHOHToELtKH5CnG4AQEzcA0tGmzh4vrlj3LLm2hVOFyDMqMM5MYc16zIUWkggx5rowr8AUAy6aaw/y1ssv8+rbH9B4zotgzqei3MZ0K/sa+ePFEMgs5D5XwZo5ga5adBkZM67rAMMD40AK60sLZl9vVTEbs1KAUdyu5fKGBggGAVLmtN3dMUl4IgQo0cRSuk2TtIEnnskhYfSQ5xTD44DmaQpK1s99CCaloVEntvNmMBqXvSrVwvy9PANjRjSrgbdnZO61jfTjHg4AKaRNZQGJdDPcHwJZNlm5s7N8KHO3YEjg8cXdxtg1wLAF67qZ9iajtxeyLHkDIt30u8ZBls0TFQUkMoOV61mrnVnaKpTq5AQvFxkKdbTVwsG40VmSFmXCNleiUAhEJ8zN775Wlv6YQ4cOcejQu2y33q5S95DLZ+i/JEJqBQU52oS7rFBnxL7yJcAXXRVObixGt6j10hd7b61i7ZbX2VycTsT9L5z6daLc1rMR1mWgTGSDqoD8Z6J5ra/0zJ60K2T8J7Z8bxOqa910/Or9BBP8ZqKnqMqBTS3S236cw/t28/LufRw+sXjRC5nU/DT6fjj04/LE7yQJiTjum8dXmenAGV3qjehqbwBKzBU11NhjPwd7aT7RkeATukhXfTPu0ips2/bzTpErmuRaHKT5gxN0Td0k3iaOHCtl/04bL+5/B1tzMx0uL0G5Cp3JRn5eHjadi5/tOHB3K7h5GzhSa2f/dhsVe97F0NpIy7lYObYiKoo0NL61hxNTdgWa+bChnL1OM8439qKpb+KcV0CX78DpMEN4kOO1LbNH34Eu2l1hbDY7O/e+grnJhVdpoqiiFIPoZ85Ml7vE09KBu9KAoerH7Nd14fJGh+l+V8OMBSxEXLVHaLS9RkXpj3lX10JzSxeD/jByjZlMmw17nhV/w6vsWfyT6xFhjOEvhnmiwkhW9asktZ5hNCCi0BdjKcxB7h8nkpIy79FhjDy1/S9Y09qGb0LJusIqslIFIu7j/LFnMRN3Qni6Gjja1cAxdSZFVnFGf7nCyL8eJU37Mo9banj2pQKGXefxByFJm4EhKwdtoI4TAwPT/qGvWutw217GYHuZP0n6hB7XCKIiA6O9DMNquO6q48LlxJYsnSuMuS4QMWXz+Pf+G/KeC1y5JgIi/u6PGLmLzAr+L85ypfBZHnvmVZ5ZWU+/J0SSKlqPNEYJks5cjTHCH3/3L6T98Hm0ZW/yrPFT+l0XCU4KKFKfxGjLIXL6LzndnUBoudsY85dhMTgp276eMXcgGjYSOE/vVOqudcWkaYBr/bE0ZvHE0prlFpJsKWbNqRGucp2R0yfJtjyPtuxVnlE3MugOIRg2s7HQSGTyVkzvNJHz/PH0BQyV2Wz8wevIW08xek1Aa6sgywJhSCz8l8QkX508Ro9xN1m5u6nQfsbgF+fxBUWSVOvRZmRjsFgIn/4vNLZO9eMUjNVvks0FRvrP47s0zkREyZqMzWQXpsPEBfpdcZOpFDkUv1SNwt2Nu+ci/kCASFIK63IrsBggcumz2V/EHlpG6PntJxh++DyG7/43KrI+ZbBnINq3NOtZl1FImklg5H/8BZ8n8oQGPqWnv4oSy9Ns3pHC2OUAkUm4OVTP592JBqKLvLfWVVFcakSOyPWVOTz1w0TzEUbpqftHRmJ2rcl9mfJCga+H+vEHxpkIiCSlWkjLyCZZAZHxT2g7PdOmJ8l9IbYAyaSax194nccTlOI7/S7nBiYBLx0fvk1Tl7RohcT95b4JX5W1HKczfiiuwupwMv1rsIXehg4SZa0S+47xzs9gR00ptvzS2ApxegbrZghfwNP0Nnv8NezYXk5+xYvkV9zaFvYPcq65JeH5l4qn4W3e8tew88VybI4XsTmmK4H7XBN9/lnW01f7Ngf4ETsrbThetDK1e9h7juOHD3NiznRVL01HjmF7Yxt2cynOnaVAkMHmY/x80MFPty+z13eojncOCuyotmPNc1AVe2P6VV2zV24LdXH0rX14du7EWVqK01o64yRBvL0ttHTNqvw3hlD7IVq1uykuzMZSkU00gjTE118c5Q89BfxJ9fzC13f6KFdtO9hYeWvFp+tDn9D+cX3cJJ/bIwb6aO2I+zHYSfsH7+GvrCE7K5vHS2e82CZGGe0ZZtb6IME2Wn+l5KnvVfP4hucpmk7DGsL3xTHaGjqXNa4u1Pk+f1BsI7cgm7TcstjqgNHVpUYWs7rUPNz01HHmt2o2V2wivXTb9MpV192fcOZ3Y1hf2pZA+MJNz0f8/n/4KKh0YraUUWApm94WvnSWLy7NU/vIRTp/cxTKq9AbCrEYYv7ycRiJCd81ltiCAAuspDed1iw1hzT1R1wNAJc/4nSdwOYXniW9uCZWlwCXW47iNuymIEGi71DnIf6g2E3JM9lYKizRPjkxTP/HdQgvbMN42xZcBDfOc+6Dd7lSuY0nbJvYaNg00wKuDH3GoHumay/AFfcokdwcLKk5zIy0Do+fpfN3R+eG40yM47sUwmLaxEbTzPOLBPs/4fPffcRCTxWdPubrC/ZybvAO6riM3Lz8ESc/GKPguWrMG56lYGaK48lxfBc/xT2vJ/QKI3XvIVTWsDHLgjElNmVb1jaP8F3svRWb0IrAqhTjPF8DBBQzFMGEb5QgOTxmKYzLDhLA90U9nzc2xk1Yi4VbAEkaI9p5XlFhlUA0+DyAq7VrnnZYJIIOTezSu12uu0+KJPGt4N9lZmb+nwdtxL1Cqc/ErFMhiEH8Xg8eb+geBMkLKPWmWDl+PIMevAsFmAlqTFYzGgFE/yC9Q7dbnUaJPtOKTiXiH+xl6GGKYZpVFy9uj+cBxuDeP1asTEOTmo6cEEFfP1eD8wu3tc/9LeWFKYz+859z+ktQaC2sUQtEfP18FbhHKZqStKxJTUeliCaf918eW3iypDojuuDAZIDgpQFCyxaDex9JSkZjMKKQQXiJbbtClYZGmxK9noFRrt6r67JoVqHUW0iWiQQv9XN1MUvErtSiSU1HIMBV90jiBViWg6Rk1qQaUSkgfG2ckG9sgbJWodCms0atJokQE77h6YVIFjy/Nh3VamW0P/qGF7y/oqip3P8Ltlth8Pjr7Jl32cj7z62+JTIRHCfo8z1iE7Wi11CpUiKPLVd99dI97F9LRMjbxaE3HGiC7fx89wFaJc+xxCL4RgtfCYkHzWzhe7dT7CUkJOagdLDn/V3kh1r42asH6ZDEz7cG07YDvFulY/D4HvbUPhKxMBIPAY/I5DYJCQkJCYm5COZMDGKQ3vo6SfR+q1BjNWsIe1upOy6JXonFI3l8JSTuIZLHV0JCQkJC4uHhEcnjew/IrGH/rlI0i572HKb3w7c4KAURSSyBq1/U0eZWEvRIoldCQkJCQuJBI3l8JSQkJCQkJCQkvhVIMb4SEhISEhISEhLfCiThKyEhISEhISEh8a1AEr4SEhISEhISEhLfCiThKyEhISEhISEh8a1AEr4SEhISEhISEhLfCiThKyEhISEhISEh8a1AEr4SEhISEhISEhLfCpLWrl37Xx+0EUtHiWPP++z/cwdruj+h66vEe+kq9/P+3j+jMPIpJy8+agtPmKh55xB/ta2QyGcnuXj1QdvzcKDbup/3f/JnFE58ysm+xVzTxfUViaUgQ6EvwvjkM2Q8WYzenMEq2Q2u+75GWqbjQSFDqS9Cl25gjXoFE19f4eYSz6C0/4StP/whqeFWBj3XF3HEKtb/6d9R8fxmZL3/i8vBO7FbQkJC4v7yyK7cJshVyOW3ET6CgFwuR0C4NzbkbWNvtRV/yxEONAwt//kFOXL5vbH9UUUgdk2X0CyL6isSi0NVQE71NjYa1LN/L34ern3KHw7+I2MPxjI0JX/BU1kC7sa/5YLnARmxHKiKeaq6Ao3vFGd+d4aJxRyTlM0T1S/z+Gpgsp+Of/gbBpYqRGUCSTKBpCUckoSSJFloScdISEhIPEgeWeG7GIKu43z4oY6Ay39vCtDosVqteAdV9+b8EhIPEyuf5Kn/8DKWFIHrQyfpbj3DZV+AJJURbdZmsnPVCElA5EEYJ0OhtaA1CARXy+BR9j3L1GgMFrSyCwiwOOFrKCZtNUQmRZJkRowZyQx0X7nHhkpISEg8enyjhW+or5UTfQ/aCgmJbwIy1pZtw5IiEB6q5fe/amTahx7wcdXTyWB7MsIDEb0Sa23ZrCLE8OnP0JSVobXlIHSfQXzQhklISEg8ZNyR8NUXbcVhDdDVHqbIWYFV5cd1vJbaXjWV26ux6+X4Xcf5oLaLQPzBSj1F5ZWU2gzoVAKif5BzzQ00dHjmeUirsZU7KS8yo1OBv7eFhuPt89ommBxUl+pn/ebtOk6Ta3k+dQuZDqrt+lhZhmiVrOVsq8m7Zb+3i/omV4K6mygpr6LUpkOjgqDfjauliabWIZZkndpGeVUeOrx0HW8ivmpqWzlVjjyseg2CGMQ72EHT8SZccwwyUVJTitnvoqmhF6XDibPEGm1nzzma6hro8i7Dq1NQk1lUit1mRa/ToFEJiEEv7q4WGpo68CQsQkCXV87WcjtmDQS9g7TWH6d3wYKW1leixZhwVJei97uob+iCzHKcVUVYdSrEoIfe5nqOx1+fJfdhAV2eg0pHEWadCkEM4vcH8LjaaWnpYCjRxVeaKCkvp9RmiLWXH7+nl/aOVjpc3vsvaFYWstGWAowzePJk4v4avJLQrhXqAiz2YtJSU5AjMuHrZ/hsPSOX4+NIV6HJqWL9ah/us58S0j6NtbgArVpJJDCMu+04A57ZXsw1Wd/HrAcQUKVG4180OdXk6G9ZMjF8it4B35yy1uZUYVjtw332FF/JniSjZAsGgxr5ZAB/zxm+PNtJaErIJyWjsWwiLSMDjVqNQiHAxDj+gTb6z3ZydQHBv0K9AWPBZtJSU1AoQAyM47t4isEvB255c1duIKPwSVQrAYUFJYDKQtaW7xOe2ufGGCNtZ/DPKSsDY0YKTHbjPtuGWFBGsqmYtJVnGLmRyCIZyowysnIL0Kgh4htmsK2e+BaaTTJrc6rIshlRySB4qY2e1rMLHoG6AGtBBnjO0NsTQLOxCqvNQvJqgXDgAoNtjYzEXU+S0tAXVmDMSEehEIhcG2asu5H+nrF5YpZlKIxPY80tQKNWIifERDCAr78Td08nVxPVf+V69IVbMBrTUSkEwhMBJnwDuF2fMebxLTk2WkJC4tHiDoSvgN7hxGmH8nIQQ6DU2bBmmrB5NJg0IUJKHTZrJhrvbvY13VJbysyt/PjHL2LTAOEg/hAorVZsdgcVLYfZd7AV76yi9FS+sZft0QPw+0OYrDuxlxZxbp7oBcHqoNJpQz7jt8Fg87IJX2WC86vMpVSZZ/zghpY44Svoy3lt707yZ9TdZLWRb6+govQw+w40z677fOhKeGXvLkp1IdqP7KNuVrV0FO3awysOA3Ig6PcjCiastnxKHQ6Ov/02tTMnhAl6HE4n+X49SutOKkrVBIMigkqF1WrDnmfmZ68epOMum8627afsrdABEA76CYkgmKzY8ktxVLVzdN8BmmdfeDJr9vKG04oqVg9MNvKL7Jybz4N/B30lepwZh9OJzatkUKxk+858NNMbrdjy9fj73qIhZt+S+zACtpr97HGakRMm6A8QQo/JpsJe6qBI9zqv1cbFh+scvLZ/F3YNEPbjDYix9rJTWm7l5zsO0Dqf8rVt48BrDjSIdB3ZzcF5d1waKwwF6BSAv5thz+LDCBRZL/En39uESgaRiQBhlGhN2RgKy7A0vssf2kdmCA0lawufZ6NhFIWqgLTiHOQTISIyJXKDhfSsbJL/6a85N12+jDU5z7Jxw+yA7+QNz5I84+/riosJhK8abfHzbEwdRvQpyX2hmnWKW1u1pkKU1/6c019Gy1pb8SblhSlAtB4TEyCkWlhn2YTFfpa2X/09I3MGljLW5LzMdyoLUcmAyRDXJ0SSUrMx2J4me8MhPv64M7rr6iexlD3PYzMPX52NpTT71t+T/QS/OIM/PnZ3XQFpGogMdeK90Y84HMKSa8FgkjHSE3+tZKwteZ3vlFmQA+FrAUjNJt1WyOi80xTSyPjT1ymyqAGR69dCrDFtw2grYHShOGJtMU+UbgKXj2BWFSW5KbdigQ0W0tcJXP1/f83U7bliXRWbf1BN+uqptiJ63Tc8TZbrKL//uC0u7EPG2i1vUlZqJAmRsD+AKEtHY1JisD2NueWv+ddTI7NtUm9m8/YdGFYDkwGC10SUqRZWWQp5vDCDTw/8PR7pq4WExDeauwh1EPDUvcZbDX5sO95jb4UBK8d5fXctQ7qtvPPei2QW5aNsao56h9Ql7Prxi9g0flwfHuTnJ2LCUG2j5sev4SzdyS5XH/uabskGfeUuamwawoONHHj7KF0BQJ3Htjdemy00ZxBq2se2puj/67a+w6EX59nxDgk07GNbQ6wFHHv45a58vI372H3UtcBReipf2Ua+Joy7+TDvHGnFK4KgL2HXG7sote/glcpe3mq4zYwcnYPX9u7CrvbS8vN9HGydKbEETDWv8YrDAO5mfn7gA1o9IaIDlV28sasU549q6Hr1KK54LaSx4zC18PNXD9PqEUFpY9vePVSZS6kur6PjxN3NFAp7e2n+8EMaWzvom/IgCzryal7jtSo7O3Y4OPdO8/RAQcisYZfTiirYy/EDb1PrCoGgo2TnHnY5DAnLuJO+Mgulne014K0/zM8a2unzhlDqbNgr8whPudzuoA+jK6em0ozcf44j+w7QNOXeFtRkllZhD8ePKgTyqmuwa8IMNh7g7aO3vpoo9Xk4yvUEFtSyKlQqFSpAKV9ov6WhSE2PDvYCIyw6wYhqC/YXNqGSjeP+7SFau0e4iQxFRg3PVJexruJlnhj6Cd2X4w9M5/FckZ5f/yVfDPi4STJpz73OdwrTsTyziT/+ZuoT/iSej17ifwIgI+2Fv+M7uQLDdf+Z/z1H8M2HGstzTnD/C5+ebGTs8hVYmYbWVoFmhqi76eunv7GOftdZ/MHYuZO0pJXtZnNxIU89txnvb2ZPRBMytvGd7xaimhzl3/75fc59ORKzOxnNRidPzOzKvo9o/O8fxUyq4E/+cw3aS/9Cw9GPbtveayw5JANfD1xggkku9/cTzs0hzZbDip7O2R7MddUUl1mQT/Tzxa/f44LnOiRp0Ve+SkluesLzK+07KLCoiVw6yZlf/5KxIKB6kvwf7CYr9bYNTJLRyVOyAMO/fZc/9vQTugGKdYWYbcKtcPCVxRT/oJr01QFGT75Pe+vFaFuqNpD9vd3k2rbx74f6OdU5YwCjLqOg2EjStW7afnWIQd/UdUlmbVYF6yLx95YM3TPVGFaLfN12iNNN56ev1wrtk5gL0pmQRK+ExDeeu8jj66XX5QVEel1uwoB/qIshEfD0MSyasxAAACAASURBVOQHuU4/7T0zOauxa8DbfJi3T8zwhgZc1B6sozeswlZZjmn6/JmUV1iR46X5yLGokAEIdHHscBPuOzf8/pNZSYVZDt5mjsZEL4DoaeXwkVb8yLGWz6z7XAR9OXv278KudtN88M040Qsoi6gpNyMP91L7zuGY6AUQ8TQf5kizH3SlVBYpE5zdT+uxmOgFCLmoresgCOht1rvOidF34iCHT7TeEr0Aopeu2lpa/SC3FWGbLkTAVlWKARg8fjgqemP7tx45RmtC7+0y9BWVhmDLQfYda6bPGy0z5HXRfKyW1tj5lt6HQdBb0csh3NtM88yYDjFAX3MttfHXEQ16vQbw0tU0O1Qo5Omi4VgDCw2x7hUKdbTfhIOBRc9dU+ZuIV0BYVcdbd1Tnt1JJgZ+SXvbKJCOufjJhA+hK2ePcm5g6rPzFcZONjI6CUmpT87wyC8HahSB4/zhNx/huRxNAXbzxhjezl/SO3xLPPvbf8Hn7W23RC9AxMfYyTqGr4HcVMDaWakN0jA/8zQqQow2vEf7tOiN1sf/5S8509S5DPZrScsyAqOM9Ufzadwc6MQ/CXJjAdpZNslIK94UFcmtR6OiN1YPT0Mtw9cSnT+DrAILSYzT31AbFb0AwfOc++1JFjN9Lmk1eD9+l/bui4RuTAKTTFxu48KpM9OiXlPixLgagl8c5cyU6AUIXuTC747jm1Syzr6FNbOqnoFSBhH3GYZ9M6/LFb768iMu9Mz18mu0amCcsc7zswYpN33nGWhqRMp2KCHxzecuhG8I/5S2CoUQgWBw6qkYJigCcmU0Vg09pTYD4OVcY9fcOECvC5cXMFixTukytRWrDvC76OiLO2KoJbr/I4LOZiValQ5646oiulpwBQGDFZs60dGgMVXyxt6d5CvdNB7Yx+GOOd9UEWylWFUQ7muKCxsAEHGd6yWMCrPNPLeAcC/n4tzAoteLH5CrlMsnNAQlOlMmNpuNvLw88mwaBBGQa9BM63E9eSYN4KarK87TLLpodyX4trosfWWQ5hOuBWJn76APA6LfH21HqwOHPtGgI54goWAY0JHnyEO91FFHbx1vv/kmb775Jsfaly8SOGnG8GdxMZCr0BrTARHvxbNz2svv6iYIrNJvYG5OlADegbhP1DdGCU0Aq5UoljV3lsjltpOL92KzCqU2g7XGDeiMT6IzqKMJJGRqFDNCJVDlYDAAExfody0cPXtXqAoxGoBr/binPOc3unFfAlbnYJzlkU1Hp1czUyRPE7nAyHCCmCaVBW0KcO0C7vgQl8ttjC0mYc74Z1wYWCgvcBpplnRgHPfZ83P7V+ACbj+QYkG7csbv1wKIQJJhM0btqkUYEmJiQgRSSCt4EsVt95eQkPgmcldZHcTpWRdi9MUm3vqbMKAi+nlU0KPTASjJ37mf/SIgzM6uq4pt12mAEDDlLfa7E8S+evH4Ad3dWH//0Omi0tHvTjD5SfTi9QIqTbSN5mhaPeW7tiOXA6hmCMTZaPS6qIDQb2Xv/nKiTTyjhQUdckCtUSLAbDtCobmfz8VgdB9hGbIgKzOp3LkdZ5EVTcLP7wLC1O+CDo0GIBBtl9lG4fX6IV4qLUdf8Q8xtJBAvpM+DDDUQMM5Bzvz89n53vvUuIfoHRpkyNU1z8S2EO0nmtlqq8Bc9Qa/KPcy2DfI0GAvro5WWm43sU30MtS3/KPCyGS01KQkgRUsRvyqUa0WgHGCgQRhB4ExgoBqdQoqiBOeIYIJxjeRSQCBJBnLmDJtHL9vEYs1rMwgo6KGJ2wWViV8asbsmkKdFu2lgYEEk9GWD0VWARogPNzJLQ3qY2xoFAzppNkywDMQ+z0F1WqAAFfnPGcmCfoDQNwDRp0WFYjB6PWazThXgnC7kXHEN3Abz3A6GjWAEkPlT9DGrvM0MlBootsVq4GpCWuXG7nQ/zTFlhyKX/o7csaH+cozjM99njFXJ/45E9uu4279lCumMh4rfpWtheN87R7mK/cAlwc+wz0sTWyTkPg2cI/TmU2rmekFB8KhKZEsznqBh/pcePHemuEvjz36RBK86EXERyhPz5SoS2yzGHuhzBB/s5AjD7n48Jgbx7YK7Dt/RHnfPpritI2gijZwWAwRihUkzipwCFcAwp7Qfc4IoGfrG3t50SrH39vM8eZz9HoDhEQAHY5du3DEidJoXwknbC8xkfXL0VfEcIIX+yyrlt6HAfDSdOBVPOXVVJbasJqs5Bus5JdW4KwZpP7gPo51zVa/IddR3nrLhbPKQZ7Nit5mx2yz46h6kZpzR9j3ThP3e32GUCAApJC0Wo2cxeSWFaI5fRFjgjWOSTGqXWUCKx5Y7l8AkYmEmQ9mkob1B69TYBC47v6UL86exx8IxLItpGB5bgePp8QdIosOEJgU76GYWoUuy0ISEFlXQcn3t9zatDoqYFUZxWgYiIriJGJP/HmuyY0FbpTJRIMdkZuLCKWORG7TBknC9JsoPBHrFzPvrEkIui8QnBwnOKs8H4O/+S8EC5xYbNnoDBYMKRYMuWXklg3TU/cu54ZnD2puDv+ST45eJKtkMwajBY2pkMdMhVhKqwlePMYfPjq1BO+/hITEo8j9yeMrBgiFAPkQDT/bR9NisgQEQwQBjVIV74MANCgX89X4ISEYjD7ElQndtWo0Koh+4k50tJfGg29zwgVdOiv7nTa2vbaV3rdOROOpp8rwBgADgXO17Ftwot19xuakyion3Psh+946ESfYMimK318MxfqKKnqN4zxTSmWCxULuR1+5kz4841hXw1FcDQACuswiyl/cjtNmpmpnNS27jxGfrCI01Ert4VZqAZR68hzV1FSXYs7fxjZHC+8039+V6CbcwwSxoNJuQJPUyNhthWooJiiVyBN9U44JaCZCiA/7hCJjFdkGgYi7jt9/UB+Xyk3EmOgpOhEdYK5aqUXBIhehWCorczCaoqMxeUo2hnjxDZCSTZoW/D4gEkKMhYsICogf6QmqBDfKjVBUiK5clWAxDXX0PHdLJBCza5jeur9l8LYDkZlcwdv5S7ydEF1KuxDrMzVstBjJes7J4IysEVPc9LVx4XdtXABYmUaazUlO2SYe21BD/sbPOP3lYpZrlpCQeFS5ixjfpTCIazAMmLDZFvnh3DOIJwzoTJjjn8eCKRrT+aAJRyM6Entqb+EZik7+05nMc4WZ2oxZDYQ9DCZ04wXx+kVAZKj2ILW9QeTmal6psc36zB4YHMQL6KyZ6BOd5gGh1OvQAIFe11wvpc6a4Dq6GfQC6LCa4/uKGnP8Urlwn/rKHfThhIh4+1qpffswLX5AZ55rczwhD10NBzlQ1wvIMWSa599XUKLT6dDpdEuPD16IS22MXQMU2ViyFhNPGeCqLwSo0aRq52xdkZoRnajkW0KWiAWZJBLzEi738rmCOoVVwIT7wtz8xWoL2kSf+n0X8U8AKdno5ondn5fJmAP8NhVZYSpGJwPctZz47/+J/znrvz/nD64QYMSQMdX+o3ztA0hBmxqv1pPRpCYw1D/C1UlAY0SzMm5bkhHtUuuWkGEuXxIBI2mGu/HFTDLhaaO77ij/dg1ISWBzPDfGGOv8BadP9wMCyQbjAjsLqKfurUfI8SIhITGb+yR8Q7Q3dRFERVFNDbaEDw01mZn6W2JO7KLDFQS5jXLHbCmnK68g7yFYJVgMeAkBGlPmgiGkoXMd9IVBbqvEaZqpRgRMVeXY5BB0ddB120/yHhoO1nIuKMdQtYudeTMasq+ZlsEwmKvYFh87MFWaPhPTsryoFo/oDxIE1GYzs4tWU1TjxDrniAAdLb2E0ZBXWTrrGMFURaUtwSjjvvSVO+jDAGo9Cee0KTUoBSDoxz/ruivR6dUJ4qoF1LroiYLeBWYUWbez/9AhDh06xK7SZVS+kYt82dpPBCWGsh3o57SpDGVWwYxZ95NcdnUTBrQFVXEZD7SY7TnIEfH1nF02b+iEL5q+b41xIfGydCI3QoQBRaoxbkJUMvqyKubKeiDSTb9rHDDyxHNbEnyJWMWadQmPhIkAE/OJzWlkrLNlIwe+7ulO0IaTXL7YTwTQ2gpjdl9hrKefCGoMBZtm1WXFugospgT9JdLNcH8IZNlk5abN2qTM3YJhWWaIXWess5vrKDGUVbM2YZ2T0ejTZr+wVGkoE+0rUyOXcasdp1mFUp2c4KUnm5W1ZF50lbwRu7f2OhfKwSMhIfEwc9+WLA51HOFIi5kflVax510zrS0tuAaDhFUazNY88vJsmD3HeGmfJ/Z1O0RLbROVNifWmjfYq6+n2RVCaXVQVW5CDBOb8DWD6RXNoiitUVeMJr+SGtWUr8aPq77hVsqru6G3lS5vBQ5zNfv3m2nv9SMCoreL+oYZqagCzXzYUM5epxnnG3vR1Ddxziugy3fgdJghPMjx2pbFrd7mbeLwkTze/ZEdx65dnHv9QCzd1hB1RxrIe8NJ/q53eKeomeaOXvxhOSqdCVu+nTybQMu+lzm6HHVfJKKrmS6/nVLbNva+pqOhpZegXI/NUYHDFMTt12CI85h5m2pprtpLRf4O9r6mp6FlEFGXT3lVCZpgGFTxF/4O+sodsPQ+DIKthnd2mRnqOkd7Vx9efxA0VkorK8lXgbe5KW7Ao6P8tf2U46KjowvXoJcgKvT5DqocBgi6aG693xG+UULt79NmfJOSDYU8/dLf4Had5bLvCqjWs85SiEHbT+uBW6uY3Rw4zhdDORSZyvjOf1Ryoa2TK6hZl1tFlkmA8ZN0nl2+jAdX+8/y9TPP81jxbv5E3Y3PF/1MPzHcmGABi8Vzs/8M7muFPG6qYcv3tFxwDRBemU567hbMqSGuXFOTvDr+qEm8J4/Rb9yNxbKNZ3c8Sf/ZTnxBEbk6gzTbJtICxzjxcYIJVTGxadyQQ/H2vyJtYDgm4MYYOX0qOlkuKZv1RiUwjjc+Q8OU3cOd+CZzWJdagF7VyEAQQmfrGLS/jmXDNrZ8P40e1wji6iexlGxCNSGCIl78Xmfk9EmyLc+jLXuVZ9SNDLpDCIbNbCw0Eplk9qS+O0TsOcbnLiNP256lbIeRwc42LvtCsFKNyvAk67OyecxXyz//6tYKbisM1VR+z4i/p5vhoQGCwRBJqgwM9mcxKCB49hSXZ4XRpGCsfpNsLjDSfx7fpXEmIkrWZGwmuzA9loEjcVtKSEh8c7hvwhcCtB58k5B3J9vK7TicNhzT28IE3X20tAzOEn/iUC1vHxT48c4qbBXbsVUA+HEdP8w564950RZXhKaISmcV8UscaGwVOKf39aJsXybhK7o48rPDhLdvxW4qosIaU1duaJkpfBHpq32bA/yInZU2HC9ap+se9p7j+OHDnBha/JSzQOthjtjN/LjUzs4fldO3rwkvIPbV8tY+Dzt31lBir2K7fcZBYS+97c103e80cKEOjvzsQ5Q/qibf7mSnfcqcc9QdqINtP+XF+E/Footjbx9G/so2HNPHhPGeq+WIx8GPEqxIseS+ckfcQR/29tLntZFpr8Bqr7i1Ieynt/Ewh4/Fp1DzM9jnQSzJx+HMn3F+CLrb+fDo4elV5O4/PkY++iliyTbyS3IwFD5/616bDPB1//m4pXvHGKh7j6QXdvDEhk3kfndT7HeR60Of0P7xr/lqOeN7Lx/nzMcCBc8UorM8jXZD9Ofrq8/flfAl0snnv65DXu3EYHue4lhfivi7+WPdcah4k9w5whe4cZ7PP3iPK5U1PGErZGNl4a1TXhtmuG10nklf1/H87j06blSTlWHh8eKp1dv6Cbafiq7cllrAutVE04zNWQAkRjCa1mydwYIhYxUD3dchcpHPf3WUFdU1PL7heYo2AIgE++tou7SZp0sTeMsvf8TpOoHNLzxLenEN0WUuAlxuOYrbsJuCZXF+XsHz8U85eWkbT5UUYinLxjK9TSQ83s+/uYZnzYG86R/gsj+bdbYytLayWxsmA/jO1tL6rxfj2jfAFfcokdwcLKk5M84P4fGzdP7uKAMLvRd0hlgCCy99rgcz+JSQkLh7/l1mZub/uf/FKtGZzOg1AmLQj9frwbvgclRK9JlWdCoR72AvnoWXrnq4EdSYrGY0Aoj+QXqHAvcky4Kg1mMy6FAJIkGvF4/HuziP8j1DiS7TjF6jRPQPMdi3GHsE1CYrZo1A0NtLn2cxNbhffWVpfVhQ6jGZdWiUAmLIy2Dv0G1WYFOiM+nRazQIhPB7Bxm67xk5FmIVynVGVKuVMDlO8NIIoQUmJa1YmYYmNQU5IhO+/tkLQTwyROucvFpJ5NowvstLSH+VpGVNajoqhchEYJQrvisPOHWWDIXWwhq1QMTXz1eBxUzoWoVSbyFZJhK81M/VG/fqGk71LQEmAgR9o7GFLxKzYmUaydoUFAqByMQ4Vy+N3GYFtlUotOmsUatJIsSEbxj/IupvqjnAu04DYdcRXos5GyQkJB49HpDwlZCQkJCQeFTQUbn/ENutXhr3vcrROeu+S0hIPCrcp8ltEhISEhISjyjKTGy6MP5zddRJoldC4pFG8vhKSEhISEhISEh8K7iPk9seMjJr2L+rdJ4ldBMRpvfDtzjY+mAjZR8U+so9vFZlYPHN5eb4O+/MWWFOQkJCQkJCQuJBIXl8JSQkJCQkJCQkvhVIMb4SEhISEhISEhLfCiThKyEhISEhISEh8a1AEr4SEhISEhISEhLfCiThKyEhISEhISEh8a1AEr4SEhISEhISEhLfCiThKyEhISEhISEh8a0gae3atf/1QRsxH6aaAxz6qz9lw1dNfDr0zVktR1e5n/f3/hmFkU85efHhyQv8sNr1KKDbup/3f/JnFE58ysm+B9l2Ao49/x/7/9zBmu5P6PrqAZryEKJYV8A6g5E12sfg2mXCkdnbhXUFpBmMrNGuI+naGBORxOd5GFmh3sD/lbuFjNwSDJkbUK8SuBEYm1NHifuFDKW+CF26gTXqFUx8fYWbSz2F/gc8t2s3T6Z9Tc+XI9w+9+gq1v/p31Hx/GZkvf+Ly8E7MlziLlmhyiD9yf8bS34JBnMGq1UKbgbHmRAX0QPUG9CbLKzRribi9yFKCWeXnYd6AQtBkCOXqxa/aMKjgiAgl8sREO7N6fO2sbfair/lCAcahh4au77JCMTabhmbLnPrHrbb5bhq91HrWsqRKuTykHQV5yBDU7qDp21KAHyNf8nv230ztq/H8t3d5KYCBOj/p04+H34Qdi6VNNY/9zJPFRpnPysLnyV3cpQv/+kndHsejGWakr/gqSwBd+PfcuEB2bA8pGH+3g4sqmH++OtfMraYwURSNk9Uv8zjq4HJfjr+4W8YWLIQFUiSCciX8KZOQkmSLETSUouSWAZWsdb+MiVlOajir9m1Tzl58B9ZeE2n9WRXv0puqgD00/kPf0Nv4J4Z+63loRa+31SCruN8+KGOgMt/bwrQ6LFarXgHVQ+XXRJLQEBltmK1CviVArDYLx4ivU0f8KFLpE9aNW9eIpOgtW1C2V7PtH9eW4w5VSQyKZD0yDwZk9F/73VKbGoi/m6+PNnIiGeUsCwFjbEYiz0HhUwGTD4A22QotBa0BoHg6gdlw3KhZM06C9oUEYUMWIzwNRSTthoikyJJMiPGjGQGuq/ca0MlHiDKgt18pyIb+eQowyfrGRwaZQIlSu0GDJbrt+02a0p28IQ22r2kgcu945F5vH+TCPW1cqLvQVsxl4fVLoml4elo4MSDNuKhRsTX3492QzEGdf20R0WTU0jyxAXcl3IwmB6shYtFyNrGUzY1XDtL2wd/z8i0R9FHyHcRzxfJKGSPsuB8dFlry2YVIYZPf4amrAytLQeh+8yih7ASjxgrN1NQFhW9X/7TX9PtuXXf+T3n8XTf5nh1BU89k86Vs58QKnweg6TO7hl32bRqMh1VVBRZ0WsEEIP4vR5c7S20dPURmHmH64qoLLci9DZzomP2Ny/BVEJlqRnRVU9DV2K/vtpWjrO8CKtOTtA7SEfTcZpc83wDUJooKS+n1GZAoxIQg378nl7aO1rpcHnnffAIOhuOcgd5Jh0aFQS9Xoa6GqlviatL1Ggc1aXo/S7qG7ogsxxnVRFWnQox6KG3uZ7jrUPT3iTB5KC6VD/rFN6u4zS55okH1Zew1WGG3iYahvRUbi0n36yBBOcGEDIdVNv1sbIM0WawlrOtJu9Wfb1d1De5mNlqS7YrehS6PAeVjiLMOhWCGMQ72EHT8SbmXhIlmQ4ndr2XruPNuM0OnOXR4/AP0tJQN/91vAMEXR7llQ7yzDpUgojf00tH43Ga58Td3qldArq8craW2zFrIOgdpLX+OL3LZL++pAaHOVqO3hQNVtA7aqix3uqAwd4mTnTMdufqi7bisM708Ptx1TeQ6HaK7hugqz1MkbMCq8qP63gttb1qKrdXY9fL8buO80FtF3MPV5JZUo6j1IYhepPg7mrmRFMX3nluLEFfRHllKXmG6DUJ+v14e7vo6Giny/Ng4qEnetq4bNmG0ZZGb+sYsJ71WemEh+oZleVgiD8gKRmNZRNpGRlo1GoUCgEmxvEPtNF/tpOr8a4cdTHZBeuJDJ+i35eOpWQLaVo1SROjjLka6flyZOnxnkoTRY5SVF21NHsAtKwvyWEV4GuvmyF6ZxC5kjBOeYW6AIu9mLTUFOSITPj6GT5bz8jl63P2VRgrMGckE3Qdx30jG7N9C4ZUNUmT4/i+qOfClyOznqlrsr6PWQ8goEqN9mFNTjU5+lt7TQyfonfARzwzyxrxpZBWWIUlKx0FIsFLbfS3foo3OCUoZCj1hRiynkSrVaNYrYTJEEF3J4Odn+INLCD4k9JIy93C+gwjqtUCkWvjXB3uZPCLNvw3pnbSkmbfgk4FoGbdaoAU1j/zfdbMOLWv+yM8c6qSgTEjBSa7cZ9tQywoI9lUTNrKM4zciN83ygptAVn2zeim+kl3Pf3X5q8CJLM2p4osmxGVDIKX2uhpPbvQAZC0nvXFxagmLjLYeZ6IfgvZxQVo1Uq4NspYdyP9PSNx78hVaDaWYdmwgTVqZbTf95yh54vzhBK6MGUojE9jzS1Ao1YiJ8REMICvvxN3TydXE9Y/mbU5FTyeZWHNagEmQkwER7nc04anf+ABxNrL0Gx0kqbxcfnsKb6aZXMyuoIKtIoR3G1t0/e+wraZNAVc/6KOP3qWOtjUYn7Bybprn9J0eoSswgS7KPOodGoYamrBNd/DVmJR3LnwFUxUvrGX7TYVEMTvDSEqTVht+dgdpZj3vczhGXGJgt6O0+lA2T5IQ4dn1o0lWCt40WnDq2xPKHyVJa/wbn4+mrAff0iJ1Wojv9RB6Qf7eLthaPZNqnPw2v5d2DVA2I83ICKYrNjy7ZSWW/n5jgO0zukzAvryV3hjmx2dHAgH8YdE9KZoOeV5P+Plgx2zyxHMOJxObF4lg2Il23fmo5neaMWWr8ff9xYN3qk6Oqh02mbF4A0Gm+cVmIK+lGqnHbFXT77ejk0I4g+B0mrFll9Cqf0gbx7smBYmygTnV5lLqTLP+MENLfHCd4l2gZK8HXt5rcKMHAj6/YhKK1ZbPqWOcuoP7OPYrGNVWMudOK1udEIRtqp8lMEgoqBCZbViy7NhemcPR113eyML6B2v8MaO6DUMB/2ExGhfsTsclBzZx4Gmmf3uTuwSyKzZyxtOK6pY3THZyC+yc25ZPOUCptJKnPbZUe0Ge9UsIeZvdsUJXwF9qRNn6Uzh60XZnkj4CugdTpx2KC8HMQRKnQ1rpgmbR4NJEyKk1GGzZqLx7mZf04wTKG1se+M1qqwqIIzfH4rdW6U4yhs5sO/onPLURbvY+4oDgxzCQS+BkBC9r+ylVNiVvPRWQwJxDaDGseddtlkFRE8Tb79VyxKi1W/PjbMMDtVQYitE2VpPaN3/397ZB7V1pXn6WcOVsYSROkJ8SGVJQYAdpfkMsgfZaZlqSDXkg55aqqbJ9uKptmvbrlkntXFq48wkmRontXa27EzH7h2SLTO1cbpDZovUxu6s6WroiunE0AFsjHEUm68RUJKJBd2SbcmyLnj3DwmQkMAY4zie3KfKVUa6V/fcc84993fe877v2Ywu1c/4qT7EotjDH6p4hfLiVACmA14CARDSTaSZNmGynKXz179kLOJGVqVvZIO1GHSZ6NKLSUv0cyMAsmQTaes3YTK9w+8/6SFw24IKaMw2KivLsRYYUck8tO0LC9/VG9ClC8Aozv7xJd96Uu7P+eGPN6FIDN1LEDlqwwZ0xWWYWt7kD13Rojwpayv51kwmkwRyzU+gTvQTnBKQJZlIMxWTpnqD33eMhY9OZG3eEzyyPtrDPGX9E6RE/H0j6VJc4SvPrSB/YyqXfcOon95Jbvrc76gNG8hImuDjTy4AsCp3J0/UFIfGrik/NwIiJCpJM+Tx8MYKhpre5MxwrGvBqrQqNv+khsxkAJEb1/2g1pO5fhO5lix+908fEnL2SkVX+iSm5MizU8nc+CSZs3+LOL8+jmtyntBJKyJDBdMjPbhvDiGO+jHlm9AZEhnrjxVFQtZ/5Ic1ZaTMtometPWbWDc0tEDqpQyy/uolSkzK2XtYa6hDby7i8mJ+xIl6jGVPkumR45uqoPDp0MQphIm09ZlMR/qVrl5P3k9284hOPnudhJl+X/wpf/jV+7ijRGEiD219hTKrngREgh4vYmImKoMcnXkLxva/57enxohmHVn/4SVKDHLAzw2Pn1tqPWlJeejzNzH0q/9yH3ztlTy08UnydZc53z9f+GaiK32SXNVFAmdnhG8iDxn0JODHbe8LPz9rEBQC077bBzUm5dVRaBAZbWriT1Mb4h+k0GKt3sa26jqc9m7aTp6ktTvaACaxNJYtfOUltdSaFfgGPmD//hPMGtTkBkrLbchWMJrUWGjGcXI/Lx3rxYuApqSOvc9VYK7dRWXvXk7MGpAFCmpqsaiCOFoOsb9hzmIl1xZgK9fGWm4BecEOXt5hy9BkMAAAHxhJREFUQRN00lZ/mPfawp1JUJJtraEme5HCyS1sqwX3yXoONncx6PYj15ixVBYQDM4d5m/dR11r6P+aZw5w5Fnjku5dkWNBa3+PVw42M+gHQWvjuZd3YbHuYEeXnUMdoYr3Nu+jrjlcC7a9vL+rEHfLPnY3LB4VdaflkpfsYFeFEZnPzgf7D3Ji0A8oMdc+z55qM1XPbaN3dz29MfWsw2oTaTm4m2PdbkSUlOx6jRdtOmzPWGmyty0ggJaGYK7j5V0WNL4BTh4+TGN3yLIvz67kuRe3UVj3HDUDe2mMUU9LL5eQXcuu6hwUvgGOH9pPo90PgobSHXvZZYuxES4DkY5DdXSErkbBc+/wslWg6+B2DnUvNjEQ6T68nZ8cDp1n2/s+uwpvdy0BV9MeXm32YN7+Fq9V6MjhOC/tbmRE8wwH3nqW7JJC5K1t4YFVQ/mLIdHr7jrK2/WtoWde0FBSt4fnKirYtcPOC4c6IgZiA9W1NnQyN+1v76O+Y2a1JSzmshdefQGQK1QoFIDqXoRb+hk/f5Hpv9yIXv07xvNDbg7nh/wkxBG+tyaHGGppYsh+Fs+MxTFBTUbZbjZvLOaxH23G/S+nY4SszFDM2qFGfvdxC56bsEq9mY1/tR19fh2F/Rf5Y3+shRUApYFSWxUVFaWYNaGJkM95jpbWVppnlhfUWaQkAoEJri7VLV+xFctTm1AkTuD8zRE6+sa4RSJJWbU8XlNGWsVOHh35O/quxJ6qLt7ElU/f5P90XEIkEfkjOyn7y2LUpVVkdL4bDviawvXRz/nfACSS8dQv+EG+wGjT3/DHOIJvIVSWOtKm+uj5sAnHyDgiKaw1bMKknOtdtwKXGe9sxHH+C65cmREXicgf2c4Pnt6E6alanP/j3ehANMVmSn9SQ2ayn8nOBjo+7QlbLRNJ0m7h0VJ1hNC8xJnDP+MMAFnk/adXeCT1Ip2H/juOBay2M6w15ZEC/Hn4IgGmuDI0RDA/jwxzHqv6e6KFUEIRhU+VkZLoxdn8Fh09oTZZm7eTHzxdHCFM55BbtlNkUjL99aec/vB9xn2A4vsU/mQ3uelLqOCkYvIr4FpnA591ncXjvcEq5Xp0Rd9neraZ1GTVhESv79IxTn9yKmQNT1CTUbGbzcVl/EXlJX77cefcc6wso2ijnoTrfXT++giOmQlBQgoP5VaQNh0r04RHasg3yAmONHGq6eScxX31OrT5m1dUS9w7UklRy4FRJq/ryfpxHY+a9eG283N16HPO/7YJV7xVCMVGHivLg6FjnOu/sbBzr7udxqMaym0WSsw2njXbqPE46G1vpbm5TbIC3wHLzuOrydEgA1ztbUStIvtH6DhxjLaVNM84m6k/NiNiRdzdx2hoc4PMSEV5pCpVodWqADe9rdHLtH5XL83HmomVgVrKa21o8GE/doD6togZlOhlsK2BAw3dC7+gFSp87YfZd6yNQXfoTL/bTtuxRjpWYgU/aKfp7ebZOhZdbdR/0IUPFQUVVpQrcImlo8RaVYKKIPbGt8OiF8CLvbGepoEgqEqptMrjnu1sq6ehe0bseOn+oBl7EGQ5BRjvStloZtuw6+jBsIAN4R9s5nDjOXwyI7Yqc1wBtbRyCZirrOgAx/H6kOgFEN10HD1GxwMXD+hmwO4GRAbsToKAZ6SXERFwDTLiAZlGO7uKIRTUUGNWgPM4Bw+3zj3zopvuhnpanaAqqMIW2SEFI1oN4LHT2hEpckXc9laOnei9r9YKcbiT8Sk96/I2YcxNJTh8esFofU/Xu5zp6pwTvQDTk4x/2sTodZAZingo3gtr6iJfftIy+zK/NXmaM5+eJYgSnWUTSVEHy9EWVLJ97wEa3n2T55+1YZa7OdfyHgdf+hnb9xygobkbV7giVyUrQ+cHvEteCpbnbyUzCYL2Jjr7Ziy7UwSG36er8zKQiXHj9+O+GKadJ/ljx6VwO07h/6qJoa+BJD0a9dKuv1TWJI1y5te/ZGB4HHEamL7KteEWzvUMzx00+hF/bG1h/EqkRW0K/1fH+HJEhOQN6ObNR1Wl1eiS4Ya9gT+09kQs1U8RcJ3izEcfcfcZANVk5OqBy4wPhSzxt4Z78EyBTF+Eel4/EXK3ok+G6aHjnOmZa5NrfQ2cj5tWMovcIhMJTDDU3BgSvQC+C5z7zacsKXwuScn0+Xf4Q+tpPN7Q5OuW9xJjpz7CFf69VfpqHjXIYeL/cvqjU3OCdHqS8d820D8Ba3IrWBe50KTOQp4I087TjEZawaev8qevPuJif6yVX5Geigzw2D+PcDMBbo7h6voQR+wp30LkJK0GENBVvkBJrpxr9k/p7/wc59eQYnqCLdt2RtcVAGvIqKhFlzTEl62nbrMC5MXeeozDr+5m++59HD3ZxQhaLFU7eO1IA0de28UzpdnfsCZ4MFm28PWHRZ7WYiM7vs5ZMdy9XfOWOUUGugfwAJqcHDSzn/vw+4KAhgJbAcqliCllARYj4LNzsm05YfAO2k7Y713AwkhXzPKxv7eXkSDIDGZyvsmcVUIOZoMMGKGra76qd9Pd5QJkGM05cU72MNg9bzbkdeH2Awp5hJvIMlAWYDHIwNdLW3fsbMN/rpsRQGUoiOgrd1ouLQUGFeCkt3deXibRTpf9gTBLRODHM/NO9fsRAZ9v5h6C+ERAJmfm0c4pMaMCHG2txKbUHqF70AMyA+aoDunBLwIqM+Wlmju02nppr3+FV155hVcOHl9ZN4cZbp5ldMjP94prMar8jJ/vW4Lf7Rrk6iwe0q9Ho/8+Gp0ylKwgUUlSUpzDv+6ZFRIziMMXmJyChPT1qMIiSFu6i9ePvMNbL2+jolCD51wbHxx8iZ9v38OBhma6R+IJoJkaFZfoL7wGtT4TEHFfOhszZnnsffiANdr1xMsHc7W/b96LeYKrHhFQkpS8spE4N/pbGF3yI5WIoFyHShtuE70JYcoPyEmKyim1jnVZqcAErs6eezdmK4rR64DrQzhnLOc3+3B+DSTnoZ9nkVWZ9CQAk/1n59XvDcb7R2MzAShMqFOB6xdxzvclvdLJ+JIm4aMMdV1atN+ozBtC/uM9p4j9yTGco15I1JMWGYV13YsIJOg2o1fHs1XHEvD5w9fbgmr1kk75FiKEDbWZpKVPcP5//S2nPn6fc63/zOmGv6dzyA/JxeQ/vj5KdK3KquUxs5KrnY0M3IHAF912Wo8d4tWd29m9/ygnu0YQsm08+/wbvNtwiD3PZEvpLBdh2aOVu/0k7dXPYzU/yxv/XI3bMcDAwAgD9i7au+MEg90FblesIBXdbjyASqVFCeHceH66TrTxjLkCY9XLvFvuxjHoYMQxgL27g/Z4gW26sFXLPTBrSbkjPCOM3MO0UUGPO3bQ8btDwkylQSOHu/IRuBMEFSoF4Atffx4el5sgRlRKFSFvrUh8eOK8yIIigCz0Dl9un9EYQr7ZmKl97XWqAYTI5XFFSPCqQkI2WrYusVyCBpUKwIs7pr1F3G4PxJUL317EWVccMVT14tzfBAEFYd9vORpdaMqgqdjD6xYREKJyFgsqOSBDoYrokKKd48cdlDxrxPr8EUq2ORkcGMQxMEBvd/ttA9u8rsF73LVvMG6/SHB9MbLAFzhGplhwSFydRVZFLY+aTayJe0j8FGhB7wTB+R/enCAQAJJTkScBPgGNJRS4i2+Ak/VzrjqLcWvKH0p7lChfogVDiSJZACbwxVty9Y7jAxTJqSiAa/O+FgOx7XVrOlTKlU695HeOLkHMp6ApraPQksf3kuO/5lclCsymUUtIRaECmGDyHloRk3KLUAHB0Z6IsXuS8ZHLoMskw5wFrhnL9RqSFErAT8AbW79iuP9ESUhlRsjS7wu1VzQTXPXBbS0J10fxLPpwrSFFGfJpX1u0mx+aQ898JIJSDggkKeQwY2e+0sLFoS1sNOWx8ee/IG9ilD+5Rpl0XmDc3hNt0Q0TON/CqMWE3lDDE3uq8DmHmPx6lCvDPfcpsG05iATD3SzYf5z+K5HP1ySOz77gUVMZiqyNqLgUWlVIWE/Rj7ag8HzOp58Nx/nNpV3X3dvKsd5WmrIr2fV8LRaNDoslB/mJez1+Prgsf5ru7eDwC256a6qwmXMwGAuxGguxVlRT62yn/sBhOlZMEMZ5BYjhR14gKjDLb2/g1VftVFfZKDDnoDVbMJot2KqepfbcUfYdaI0WPoIs9DiL4vJ0lxiMM/isHGLcQolzL9NvcnePGTG5YF2FPpfJFphr3isTi2ymDX34Z8oWVUY/I3Y3+Fzx22qJ5QoJvWDcNllm7/mWM9O5ZiYRQUSfP3z/YnQ9+AfxuoI4PJEfioyceJW9rkqqyy1kGw2YLTrMFhtVz9Zi/2A/+08M3teaE/tPcr7TS8rXp7my4As2g5yfvESRTuCG83POn72Ax+sNP4OpmH60nYdTF75GrICbs9CGxLKIo7WJNlUVJeYcql48gs1tp7e9jdbFIrivewkAsiQligT4020FgoCQELredDx32ykxZF1MFFiVwNJy1d4jglO36xWJPFT+Ej/YmAmeiwy1nObypBdxSmQaAZVlOyXr5y/6hq1yUwvc/4qwBk2uiQRgOq2C0n+/de6r5ND6SUj8DM+K4pkJU9zqnlrEmj+1QN9ayr1N3W7EElgV7pvT0/5wfUWfMT05RGBSxBNl5ZrE8S9/i6+oGpN5AxqdCV2qCV1+Gfllo/Q3vcm50Xl+7Tc7+WPDBM7SCowmE2pdHnpdHvriJ5me+IKOX78bs2ry7WPO3ejayFBsu0yOzU4qk8LPVlJ+DUYVXD0/RlLuRtbNHjyz4qJEnbWRQMCPp/9CbOYYCGd6KafcZsFsVCEjiMfRRdvJ++tG9m3n7tan/IO0HTtMG4CgxFBgo2ZbDRadlW21bXQf7p19VBZ7yITbbHcllyuYbz9Ergq9jH3+GDHjH+mgsb6DRgC5lgJbDbU1VoyFddTZ2jnQFvFbHh8+QKXSRFiOvz0I8jhWREGOIqT0ZvX/N4Lfjy8IyOeWwKOKpZAjAMGg75sVMz5PqA3d3dTva+SebBAl+vH7AZkCeRwruzxeO/2bwY/PFwREBpr23ybQbj4iru4T1HeHMgvLNWasz9RSW5GDuWYblR2vcuJ+PnTTwwy33sbaoq9ig05g2tnE7987OW8kEtEvMoomrA5ZY6NfhHKEsKgQw2vbXnsz9fuaETRmrOWVlNsKsFabsVZvx23vpr2tldZ2e3TKuMlhPAFIScpEnQ5jt+34fgI3Q9eXxXPLSFaGpjoBf8iv9ttMQjG5+ZkkBProeO8f56VyS0RWHOedMu0nGACS5SQlc29WylbnoQ+nIZSlbkAXb0KUuoEMNXgmAUSCgZA1VRZnmX9Vkjx2yfpmyNLP6jUIMM89QokQr23vGD+BgAiIuD97644CE+Eq7p73cfdAKGiwmJzHa3nEpCf3R9U4/ueHsauYN4cZO/UuY6cIpw7cwqNbq9GlbuKxstOMf3LhztP/3RWLj3GxqztefB4R0oUF54szn8+sjqxKCk3EUvJrKc2Pd0Yq+sqd6LnM+Xf/jouzqxRyDCU2ysttWAuNIZHsc3Ku5TitzW1036cUkQ8SK+eYJXoZ6T7BIY+KQ29UodMa0NA7J0LEYMgaqFDErGrrtLGel5FocgwIRC/9yY1aNEDQ5Vhc6Phd9DYfxoWGI9ty0GUboS0ixM1lZ8RXhU5jxqyFwW/ZtpoyXTYG2ojKlqXJQasA3E4c8fp4MLRSLay0NVh04vJCocZIjgE65qXwMmbrkAHOEdc3K3xdA4z4QKfNIUcJrnuyvuPE4QabSkOOUaA5Km2FEqNupUMKxLC5X5i/wngfEBkccIHFiLHAAN3Lz93md9tpbdiPqHmHXYVacgwCCyUAFpQaVDPpBb3++2YZFpSprAF8zouxVhSlCfUiy8oJ6ixUnI4OmFJnsTYJ8Fzm6rylX9Ftp63RTlujHG2JjcrycqyFVqrNVqq3uxnobqHpvRMhv//pPkZH/OjXp6LLX8951+I+m+Dl2qQfdEpU6WoYjV7vX5WexVqAybEYN4flMcV0yE9o5XehSk4N1aHzEpMxk/9MNGnxpuajuL8WeThZT4Y+hYE72kVtpveFLaEL5eI1bESTCDgbOfFeyzxRmkjGj3/BD8x6dFlqLk5OAlNcm5wAMlmr08NX0ZMwRbo+dlHPM8a1KUhR6VGtJjovboIe9YoMRVN4Ri/Dej1qvR76l7sUP0XA1Ulfk5+kv3mBh1NDZY7n8jDL9FU8/Sc57UnhRzueICVdTxIXFrBgCig1KkLDhJs43iLLZMZyLoSD1iJYnRnqe1FM8afRUVhvYm16JswPMVRmhARqwIsvrIAD/U10eOI0VmIWuZVlqBMnGG05jvO6F4+H0N4BdbU8Yy1EpwAI4h5op7X1ZPy9BuJyr+rrwWLZwW1yjXYBq58KBRD0+6Nndc6RkDXVUEBB5InKUiotizskKQqqsEVpYy3l5WZk+LB390a8EOVotMo4OkFAqQld1OeeN9cUe2ntdgNGquvK4wQ/yTEYFhfm9xSNhaqSyAoTMFdaMQIee0fcoB/R68YPqAzZce7nbhik/Zwb0GCtKomOHlWWUmnVAE562+9JKNLCiL20trtBZqZmW0n8qFa5gWzD3URheuluHyCIioLK6GwagqGKSvPK+5y4PT5AhjbHcN+1r7ujFXsQNNZtPGOIVxoBTfa8/iZo0GriHatArpABfjyehUZrJeUvHuHIkSMceaOG+7mR2vRNP0EgKV0/LwtDCtqyKhZNaKAqJjc30kMzkYeKNvE9wDfcuUgGAT+u7mYaDuxh589f4e3j7Qx4leRYq7DOZiq4wfhnn3MVUOTXUaRPifmVVWlFaGY76xRX7H0EAXVR1bwsFGqMljxkiHGCrJZPYNIPCKzV61foF2d+2E9gClBmxQREyfNqMMV1PbmK83wfQQQyH68NGQ/mkaReR3yDqZdQ7Gcq6vSF7EWJpJk3IAP+HBMICDDFlUtDTANqc/Hsda7Z+7gKpORuJSPyXhK+T25RZsyvMN3H6JAfEjeQm58R9ZU8fyu6FbH4gt9+iitToMivJSct3j0nkqTNiq4vRQbyeAFqiUpkiYQykMwzHgvKjLjj26rk0Lt8+voik15NJS8fCY0Tr1Wv5Chxg6uTXiAVjSGyjhNZW7wVdZzqCPR3MjkFa8xV87I3rEFTXEwK0X7ftyYvMPbV6dh/9gvhVWwvk/2nGfsq7OagMlNeUYgOB+dOHmX/C9vZ/ephGtvuIKbqntXXg8WyLb7GmtfYW+Cht6sX+6ADtw9UORbKy62o8NDV0hU9Q/P20mUPYjZb2PHacxhb7bjlBkoqrOhED4t54/tEA3Wv7UV7soMBvxyzrZqKHBlBRzON7ZFX0VC+53XKsdPd3Yvd4caHAm2hjSqbDnx22jrmm3RF7O8dpS17D7bCHRw4UEBbWzcDniAyVQ4FNisF7qPsPHT7YJMFUZopr5rLKCDPCd2rqrCSWsVM+RfYacsnULLrdfa0NtPuENEUVlJt04DvHE1NC2STGOig112BzVjD668b6RrwIAKiu5eTzRFp3pZRrsGmD+iyPI/F+hyvCc00tzsQVTmUVpVTqABPeyPHv2HdCyL2xqO0mPdQYX2RNzXttLX34vAEkamMZJvNWApy8DS/wN640fFLw93aSFvVa1QUbue1PdrQvWsKKa8qReULgmJlxa+rvRtnpQ5d1Yu8runF7g4Nhx57c9QGFvJsG9WWmd33BEIb98kxVtRSawl/7Bug7UT38t1A3K0cPWbl9R1mnn39AOa2NrrtbnwyBRqDmcKCAswaOwe3H5oz4MoL2HGoFuVgL73n7Ay4PSDTkFNaRXkOBB3ttD4AW2TfGjqN83oxDxtq2fpjNRftwwRXZ5KZvxVjup+r15WkJC9wckBA99Qr/EVHC06PSJKpgkfzUyHQx5efXVrS9UXvIB2Nh+loFNAWlKCKcA25daWJP7bo2VqxAdNP/xsPXfqCsdFxphPVqPR56ExynL/qm93F7Nbwcc6P5FFiKOMHfy3nYmcPV1GSll9FrkGAiU/pObtykV/Xhs7y58ef5Hsbd/NDZR+Tk6Fl+sBoS9wNLJbMzbM4RmrINBWz8ac/48vOC/huyknJ3UyOOZXAhB9ZauxEV/yqkTNmE6XrN7Fleyr/2nWa8Uk/rE5FnbsZY/pF/vBP78cRrVcZt19k2rCBh3/8D8j6L3L1esgVwNP3EWOTQMIG1unlwATuofgbitwa7WFyKo+09CK0ihaGfcCVk5y3b2KLeQt/8VMh3Cap6DZWoU/yM418nsX8BmOffcoG05Ooy17gcWULDqcfQbeZR4r1TE/FW4pfBr5TdLZs5IeVGyj6638g4/xpxkYmCCJHkb6ejNw8MlUX+fzQL3GFrZirdDVU/liPp7+P0ZFhfD4/CYosdJYn0CWB7+ypGF/6taUvUZbrZby/j8sjYwSmQaYuwlS6iTV4Ge2JzUDyTeCx9+Er3sL3Hn+BxxUtjH0NSYbN5GTJCQRAMX+C4f2U8+crKCvOY+O2/0paVydXAgIq01ZM5lSYGuLLz3qW77LhG+D4wZcY6B6RgtbukmU/Hp6BAdwFBVgqjFgqIr7wOWg/Wk99TBJbN61Hj2F+uQ6L0Ur1Divgw9F2jLcdNt7YtrDwHTlez4BlB9Xb5rLyewZOcvRg47zUSh4cgy7E0kJs1YXYIovl7OKDhvrZndSi8PdS/+oBHDvqqLFaqDJaZr8Kehx0N9/l0r2qhMrqqphtUFXmCqrNM3/F32nL19vIMbGS7dU7mClV0H2OD+oP07qQb6Ro5+jBeoLbnsFiKKEiJyzInNAeKXyXUy5vB4f3K9i1qxarpZods1Xlw9HWwOGj3ffnofT30vDqPlw7dlBttVKdY4340od7oJ323rtMtivaOba/Htlzddhm7z2I+1wjR102no/aJm8FGGniwGGB7TUWcgpsVIWb0aPojRK+ipxyqqvnp5BTkGOrZvZTXzsDETlgl4OrdT97PbVs31ZOYcWzFEY890GPg3Nt7dG/L7pxjPixma1UmSPbI4jbfpKjb6/wbmz3iukeznzYhKymGp35STaGn41pTx9fNh2HilfIX0D4BoebODNVwWNldczYPKc9ffR8/A6OO/bPF3H1dsybvEzh6XqL33lreKy8jMz1ZXxv/dzxN5xfMB6VwWGc4aa3SHhqO4+u30T+05vmjh35HV0ff7iEILk74MpxTn8sUPR4MRrTFtThst1IvnB3wperjH38Dqqa7eQatlD09JbQx1OXGW05wpB6J2VxhC9MMvbRG4ildRSW5vFwmYmHZ76amuDK2YWW1MHf8w5/SKojv2gDGfll4XEztHPb2OQUpBeFtjW+fnEujdl8fKG0Zmk6E7qsNQz33QCu4vrNW3Qn7KQook2mJ77gTIvIo09vic0Xc+UjPmsS2PzUE2RurA3vJOflSnsDTt1uilbImOfveYvf+8J9q7iGzIitdKevj3L5fCeeiP5yyzPMFc8G0sxlqM1lc19MeZk820jHb2PdcQLOIa7m5qEr1qOL3Ko3MMq//qaBM/2LuKRodGGTmZtB+8r6Kd4abaSzXc9mq362jqc9F/ny4+MontqNKY67g/u3b/L51E4eK96AqWIDpvA3wYk+ej55545SlsXgH6S7+y7Oh3taXw8S/y47O/v/3c0PyDUGjFoNckHE73bhGHHfJppQjjY7B41CxOMYYGTJNnoBpSEHo0rA5x5gcFEHbjkagxatSoWAH4/bwYhriT6CggZDjhaVIOJzOxlxee/LbFMo2UPDixbE9v3sPNwLGgM5WhX4XDgGb1fH3wxybTZGjQpB9OByDMZNcXZfEJQYcoyoBBA9bpwu14qm17uzvvhvk1DbKxBEHx63C5d7kedLUKI16NCo5CB6cDtGcK1sg3xDrEGepiclWc709VEmr0wuaL1ZlfufeaamGM6/xcefXGCVYh3qdCVcv7zoeXdHIoJSz1q1EtmUH9/kENd8CwclrVqdgSo9FRkigcmh6M05HiAEZRYqtZKEqQk8zrE7SH8Vak9FssD09Qn8k+P3PXXWKsU6VOlKEpbcT9Yg15pISRTxfT3EtZv3rg0FZRZrlXIS8BPwXsbnvbFw/1+dQYo6laQkgenABNe+vn27CMp1rFWmIksUCV6/jGcJ92+oPcSb1TqC9qPs2dd6T4LTI59dz5XJpemBBDUqXSZJiRD0juKZvP22xd8E30R9PQjctfCVuDfMF74PokyQkPiuMl/4SkhIrDQaKl8/wrYcNy37XqDBLr0lF0eqrxmWHdwmISEhISEhIXFfkGdj1gTxnGui6Tss4paMVF+zrOw+kxISEhISEhIS9xp/B4d2dtzvUjw4SPU1iyR8v6WII800HO0Fl+O74+aQXcvru6yh3K1LIsjAB69yuOPb52OrrdzLnird0jfWCzo5fuDAwgGLEg8Ut5wtnPnNBZgcvd9FkZCQkJCIQPLxlZCQkJCQkJCQ+E4g+fhKSEhISEhISEh8J5CEr4SEhISEhISExHcCSfhKSEhISEhISEh8J5CEr4SEhISEhISExHcCSfhKSEhISEhISEh8J5CEr4SEhISEhISExHcCSfhKSEhISEhISEh8J/j/wum8tYXUhAkAAAAASUVORK5CYII=;" parent="1" vertex="1">
                    <mxGeometry x="190" y="200" width="362" height="63.94" as="geometry"/>
                </mxCell>
                <mxCell id="63" style="edgeStyle=none;html=1;" parent="1" source="60" target="65" edge="1">
                    <mxGeometry relative="1" as="geometry">
                        <mxPoint x="-1064.9216230366492" y="183.05486910994776" as="targetPoint"/>
                    </mxGeometry>
                </mxCell>
                <mxCell id="60" value="SAVE FILE :&lt;div&gt;( owner,&amp;nbsp;&lt;span style=&quot;background-color: transparent;&quot;&gt;FileContent&lt;/span&gt;&lt;span style=&quot;background-color: transparent;&quot;&gt;)&lt;/span&gt;&lt;/div&gt;" style="rounded=0;whiteSpace=wrap;html=1;fillColor=#ffe6cc;strokeColor=#d79b00;" parent="1" vertex="1">
                    <mxGeometry x="-627.3299999999999" y="420.28" width="160" height="100" as="geometry"/>
                </mxCell>
                <mxCell id="72" style="edgeStyle=none;html=1;entryX=0.5;entryY=0;entryDx=0;entryDy=0;" parent="1" source="65" target="69" edge="1">
                    <mxGeometry relative="1" as="geometry"/>
                </mxCell>
                <mxCell id="65" value="Medi_Token_ Contract" style="whiteSpace=wrap;html=1;aspect=fixed;" parent="1" vertex="1">
                    <mxGeometry x="-587.3316230366493" y="550.2848691099477" width="80" height="80" as="geometry"/>
                </mxCell>
                <mxCell id="70" style="edgeStyle=none;html=1;" parent="1" source="69" target="71" edge="1">
                    <mxGeometry relative="1" as="geometry">
                        <mxPoint x="-1137.331623036649" y="600.2800000000002" as="targetPoint"/>
                    </mxGeometry>
                </mxCell>
                <mxCell id="69" value="balance(owner) &amp;gt;= 1" style="rhombus;whiteSpace=wrap;html=1;" parent="1" vertex="1">
                    <mxGeometry x="-622.3299999999999" y="660.28" width="150" height="130" as="geometry"/>
                </mxCell>
                <mxCell id="115" style="edgeStyle=none;html=1;" parent="1" source="71" target="116" edge="1">
                    <mxGeometry relative="1" as="geometry">
                        <mxPoint x="-547.3299999999999" y="980.28" as="targetPoint"/>
                    </mxGeometry>
                </mxCell>
                <mxCell id="71" value="File_count += 1&lt;div&gt;files(user, fileCount) = fileAddress&lt;/div&gt;" style="shape=parallelogram;perimeter=parallelogramPerimeter;whiteSpace=wrap;html=1;fixedSize=1;" parent="1" vertex="1">
                    <mxGeometry x="-657.3299999999999" y="820.28" width="220" height="120" as="geometry"/>
                </mxCell>
                <mxCell id="75" style="edgeStyle=none;html=1;" parent="1" source="74" target="77" edge="1">
                    <mxGeometry relative="1" as="geometry">
                        <mxPoint x="670" y="594.5" as="targetPoint"/>
                    </mxGeometry>
                </mxCell>
                <mxCell id="74" value="GET FILES&lt;div&gt;(owner)&lt;/div&gt;" style="rounded=0;whiteSpace=wrap;html=1;fillColor=#d5e8d4;strokeColor=#82b366;" parent="1" vertex="1">
                    <mxGeometry x="590" y="424.5" width="160" height="100" as="geometry"/>
                </mxCell>
                <mxCell id="78" style="edgeStyle=none;html=1;" parent="1" source="77" target="79" edge="1">
                    <mxGeometry relative="1" as="geometry">
                        <mxPoint x="660" y="744.5" as="targetPoint"/>
                    </mxGeometry>
                </mxCell>
                <mxCell id="77" value="&lt;div&gt;i = 1&lt;/div&gt;maxfiles = file_counter(owner) + 1&lt;div&gt;filesArray = [ ]&lt;/div&gt;" style="shape=parallelogram;perimeter=parallelogramPerimeter;whiteSpace=wrap;html=1;fixedSize=1;" parent="1" vertex="1">
                    <mxGeometry x="590" y="594.5" width="150" height="100" as="geometry"/>
                </mxCell>
                <mxCell id="80" style="edgeStyle=none;html=1;" parent="1" source="79" target="81" edge="1">
                    <mxGeometry relative="1" as="geometry">
                        <mxPoint x="880" y="799.5" as="targetPoint"/>
                    </mxGeometry>
                </mxCell>
                <mxCell id="83" style="edgeStyle=none;html=1;exitX=0;exitY=0.5;exitDx=0;exitDy=0;" parent="1" source="79" target="87" edge="1">
                    <mxGeometry relative="1" as="geometry">
                        <mxPoint x="540" y="984.5" as="targetPoint"/>
                        <Array as="points">
                            <mxPoint x="540" y="799.5"/>
                        </Array>
                    </mxGeometry>
                </mxCell>
                <mxCell id="79" value="i ! = maxFiles" style="rhombus;whiteSpace=wrap;html=1;" parent="1" vertex="1">
                    <mxGeometry x="605" y="744.5" width="110" height="110" as="geometry"/>
                </mxCell>
                <mxCell id="82" style="edgeStyle=none;html=1;entryX=0.5;entryY=1;entryDx=0;entryDy=0;exitX=0.5;exitY=1;exitDx=0;exitDy=0;" parent="1" source="81" target="79" edge="1">
                    <mxGeometry relative="1" as="geometry">
                        <Array as="points">
                            <mxPoint x="880" y="944.5"/>
                            <mxPoint x="660" y="944.5"/>
                        </Array>
                    </mxGeometry>
                </mxCell>
                <mxCell id="81" value="filesArray&lt;div&gt;.add(&lt;div&gt;files_list(owner, i)&lt;/div&gt;&lt;div&gt;)&lt;/div&gt;&lt;/div&gt;" style="rounded=0;whiteSpace=wrap;html=1;" parent="1" vertex="1">
                    <mxGeometry x="820" y="754.5" width="120" height="90" as="geometry"/>
                </mxCell>
                <mxCell id="84" value="i+=1" style="text;html=1;align=center;verticalAlign=middle;resizable=0;points=[];autosize=1;strokeColor=none;fillColor=none;" parent="1" vertex="1">
                    <mxGeometry x="750" y="914.5" width="50" height="30" as="geometry"/>
                </mxCell>
                <mxCell id="85" value="Yes" style="text;html=1;align=center;verticalAlign=middle;resizable=0;points=[];autosize=1;strokeColor=none;fillColor=none;" parent="1" vertex="1">
                    <mxGeometry x="710" y="762.5" width="40" height="30" as="geometry"/>
                </mxCell>
                <mxCell id="86" value="No" style="text;html=1;align=center;verticalAlign=middle;resizable=0;points=[];autosize=1;strokeColor=none;fillColor=none;" parent="1" vertex="1">
                    <mxGeometry x="570" y="762.5" width="40" height="30" as="geometry"/>
                </mxCell>
                <mxCell id="117" style="edgeStyle=none;html=1;" parent="1" source="87" target="118" edge="1">
                    <mxGeometry relative="1" as="geometry">
                        <mxPoint x="540" y="1044.5" as="targetPoint"/>
                    </mxGeometry>
                </mxCell>
                <mxCell id="87" value="return filesArray" style="rounded=0;whiteSpace=wrap;html=1;" parent="1" vertex="1">
                    <mxGeometry x="480" y="954.5" width="120" height="60" as="geometry"/>
                </mxCell>
                <mxCell id="88" value="Storage Functions" style="text;html=1;align=center;verticalAlign=middle;resizable=0;points=[];autosize=1;strokeColor=none;fillColor=none;" parent="1" vertex="1">
                    <mxGeometry x="400" y="160" width="120" height="30" as="geometry"/>
                </mxCell>
                <mxCell id="97" style="edgeStyle=none;html=1;" parent="1" source="90" target="100" edge="1">
                    <mxGeometry relative="1" as="geometry">
                        <mxPoint x="1430" y="564.5" as="targetPoint"/>
                    </mxGeometry>
                </mxCell>
                <mxCell id="90" value="isSubscribed&lt;div&gt;(user)&lt;/div&gt;" style="rounded=0;whiteSpace=wrap;html=1;fillColor=#d5e8d4;strokeColor=#82b366;" parent="1" vertex="1">
                    <mxGeometry x="1350" y="424.36" width="160" height="90" as="geometry"/>
                </mxCell>
                <mxCell id="93" style="edgeStyle=none;html=1;" parent="1" source="92" target="94" edge="1">
                    <mxGeometry relative="1" as="geometry">
                        <mxPoint x="1105" y="564.5" as="targetPoint"/>
                    </mxGeometry>
                </mxCell>
                <mxCell id="92" value="Get User Tokens&lt;div&gt;()&lt;/div&gt;" style="rounded=0;whiteSpace=wrap;html=1;fillColor=#d5e8d4;strokeColor=#82b366;" parent="1" vertex="1">
                    <mxGeometry x="1030" y="424.22" width="150" height="90.14" as="geometry"/>
                </mxCell>
                <mxCell id="95" style="edgeStyle=none;html=1;" parent="1" source="94" target="96" edge="1">
                    <mxGeometry relative="1" as="geometry">
                        <mxPoint x="1107.5" y="714.5" as="targetPoint"/>
                    </mxGeometry>
                </mxCell>
                <mxCell id="94" value="address = get_&lt;span style=&quot;color: rgb(63, 63, 63);&quot;&gt;caller_address()&lt;/span&gt;" style="shape=parallelogram;perimeter=parallelogramPerimeter;whiteSpace=wrap;html=1;fixedSize=1;" parent="1" vertex="1">
                    <mxGeometry x="1035" y="574.5" width="145" height="60" as="geometry"/>
                </mxCell>
                <mxCell id="119" style="edgeStyle=none;html=1;" parent="1" source="96" target="120" edge="1">
                    <mxGeometry relative="1" as="geometry">
                        <mxPoint x="1107.5" y="784.5" as="targetPoint"/>
                    </mxGeometry>
                </mxCell>
                <mxCell id="96" value="return balance_of(address)" style="rounded=0;whiteSpace=wrap;html=1;" parent="1" vertex="1">
                    <mxGeometry x="1047.5" y="694.5" width="120" height="60" as="geometry"/>
                </mxCell>
                <mxCell id="101" style="edgeStyle=none;html=1;" parent="1" source="100" target="102" edge="1">
                    <mxGeometry relative="1" as="geometry">
                        <mxPoint x="1430" y="694.5" as="targetPoint"/>
                    </mxGeometry>
                </mxCell>
                <mxCell id="100" value="user_timestamps = subscription_end_times(user)" style="shape=parallelogram;perimeter=parallelogramPerimeter;whiteSpace=wrap;html=1;fixedSize=1;" parent="1" vertex="1">
                    <mxGeometry x="1315" y="564.5" width="230" height="80" as="geometry"/>
                </mxCell>
                <mxCell id="121" style="edgeStyle=none;html=1;" parent="1" source="102" target="122" edge="1">
                    <mxGeometry relative="1" as="geometry">
                        <mxPoint x="1430" y="804.5" as="targetPoint"/>
                    </mxGeometry>
                </mxCell>
                <mxCell id="102" value="return&lt;div&gt;user_timestamps &amp;gt; block_timestamps&lt;/div&gt;" style="rounded=0;whiteSpace=wrap;html=1;" parent="1" vertex="1">
                    <mxGeometry x="1370" y="694.5" width="120" height="60" as="geometry"/>
                </mxCell>
                <mxCell id="105" style="edgeStyle=none;html=1;" parent="1" source="104" target="106" edge="1">
                    <mxGeometry relative="1" as="geometry">
                        <mxPoint x="1715" y="564.5" as="targetPoint"/>
                    </mxGeometry>
                </mxCell>
                <mxCell id="104" value="get_subscription_details&lt;div&gt;()&lt;/div&gt;" style="rounded=0;whiteSpace=wrap;html=1;fillColor=#d5e8d4;strokeColor=#82b366;" parent="1" vertex="1">
                    <mxGeometry x="1640" y="424.22" width="150" height="80.28" as="geometry"/>
                </mxCell>
                <mxCell id="107" style="edgeStyle=none;html=1;" parent="1" source="106" target="108" edge="1">
                    <mxGeometry relative="1" as="geometry">
                        <mxPoint x="1715" y="714.5" as="targetPoint"/>
                    </mxGeometry>
                </mxCell>
                <mxCell id="106" value="user = get_caller()&lt;div&gt;user_timestamps = subscription_end_times(user)&lt;/div&gt;&lt;div&gt;isSubscribed = user_timestamps&amp;gt;block_timestamps&lt;/div&gt;" style="shape=parallelogram;perimeter=parallelogramPerimeter;whiteSpace=wrap;html=1;fixedSize=1;" parent="1" vertex="1">
                    <mxGeometry x="1583.75" y="549.5" width="262.5" height="110" as="geometry"/>
                </mxCell>
                <mxCell id="123" style="edgeStyle=none;html=1;" parent="1" source="108" target="124" edge="1">
                    <mxGeometry relative="1" as="geometry">
                        <mxPoint x="1715" y="794.5" as="targetPoint"/>
                    </mxGeometry>
                </mxCell>
                <mxCell id="108" value="return (&lt;div&gt;isSubscribed,&lt;/div&gt;&lt;div&gt;user_timestamps&lt;/div&gt;&lt;div&gt;)&lt;/div&gt;" style="rounded=0;whiteSpace=wrap;html=1;" parent="1" vertex="1">
                    <mxGeometry x="1655" y="694.5" width="120" height="60" as="geometry"/>
                </mxCell>
                <mxCell id="111" style="edgeStyle=none;html=1;" parent="1" source="110" target="112" edge="1">
                    <mxGeometry relative="1" as="geometry">
                        <mxPoint x="1975" y="544.5" as="targetPoint"/>
                    </mxGeometry>
                </mxCell>
                <mxCell id="110" value="get_sub_end_date&lt;div&gt;(user)&lt;/div&gt;" style="rounded=0;whiteSpace=wrap;html=1;fillColor=#d5e8d4;strokeColor=#82b366;" parent="1" vertex="1">
                    <mxGeometry x="1900" y="424.22" width="150" height="80.28" as="geometry"/>
                </mxCell>
                <mxCell id="113" style="edgeStyle=none;html=1;" parent="1" source="112" target="114" edge="1">
                    <mxGeometry relative="1" as="geometry">
                        <mxPoint x="1975" y="704.5" as="targetPoint"/>
                    </mxGeometry>
                </mxCell>
                <mxCell id="112" value="&lt;span style=&quot;color: rgb(63, 63, 63);&quot;&gt;user_sub_end = subscription_end_times(user)&lt;/span&gt;" style="shape=parallelogram;perimeter=parallelogramPerimeter;whiteSpace=wrap;html=1;fixedSize=1;" parent="1" vertex="1">
                    <mxGeometry x="1867.5" y="549.5" width="215" height="110" as="geometry"/>
                </mxCell>
                <mxCell id="125" style="edgeStyle=none;html=1;" parent="1" source="114" target="126" edge="1">
                    <mxGeometry relative="1" as="geometry">
                        <mxPoint x="1975" y="814.5" as="targetPoint"/>
                    </mxGeometry>
                </mxCell>
                <mxCell id="114" value="return (&lt;div&gt;user_sub_end&lt;/div&gt;&lt;div&gt;)&lt;/div&gt;" style="rounded=0;whiteSpace=wrap;html=1;" parent="1" vertex="1">
                    <mxGeometry x="1915" y="694.5" width="120" height="60" as="geometry"/>
                </mxCell>
                <mxCell id="116" value="END" style="ellipse;whiteSpace=wrap;html=1;" parent="1" vertex="1">
                    <mxGeometry x="-607.3299999999999" y="970.28" width="120" height="80" as="geometry"/>
                </mxCell>
                <mxCell id="118" value="END" style="ellipse;whiteSpace=wrap;html=1;" parent="1" vertex="1">
                    <mxGeometry x="480" y="1034.5" width="120" height="80" as="geometry"/>
                </mxCell>
                <mxCell id="120" value="END" style="ellipse;whiteSpace=wrap;html=1;" parent="1" vertex="1">
                    <mxGeometry x="1047.5" y="792.5" width="120" height="80" as="geometry"/>
                </mxCell>
                <mxCell id="122" value="END" style="ellipse;whiteSpace=wrap;html=1;" parent="1" vertex="1">
                    <mxGeometry x="1370" y="784.5" width="120" height="80" as="geometry"/>
                </mxCell>
                <mxCell id="124" value="END" style="ellipse;whiteSpace=wrap;html=1;" parent="1" vertex="1">
                    <mxGeometry x="1655" y="784.5" width="120" height="80" as="geometry"/>
                </mxCell>
                <mxCell id="126" value="END" style="ellipse;whiteSpace=wrap;html=1;" parent="1" vertex="1">
                    <mxGeometry x="1915" y="784.5" width="120" height="80" as="geometry"/>
                </mxCell>
                <mxCell id="128" value="READ FUNCTIONS" style="text;html=1;align=center;verticalAlign=middle;resizable=0;points=[];autosize=1;strokeColor=none;fillColor=none;fontStyle=1;fontSize=28;" parent="1" vertex="1">
                    <mxGeometry x="1020" y="1250" width="270" height="50" as="geometry"/>
                </mxCell>
                <mxCell id="129" value="" style="endArrow=classic;html=1;" parent="1" edge="1">
                    <mxGeometry width="50" height="50" relative="1" as="geometry">
                        <mxPoint x="2117" y="1090" as="sourcePoint"/>
                        <mxPoint x="433" y="1080" as="targetPoint"/>
                        <Array as="points">
                            <mxPoint x="2117" y="1190"/>
                            <mxPoint x="433" y="1190"/>
                        </Array>
                    </mxGeometry>
                </mxCell>
                <mxCell id="130" value="" style="endArrow=classic;html=1;" parent="1" edge="1">
                    <mxGeometry width="50" height="50" relative="1" as="geometry">
                        <mxPoint x="400" y="1100" as="sourcePoint"/>
                        <mxPoint x="-830" y="1080" as="targetPoint"/>
                        <Array as="points">
                            <mxPoint x="400" y="1190"/>
                            <mxPoint x="-830" y="1190"/>
                        </Array>
                    </mxGeometry>
                </mxCell>
                <mxCell id="131" value="WRITE FUNCTIONS" style="text;html=1;align=center;verticalAlign=middle;resizable=0;points=[];autosize=1;strokeColor=none;fillColor=none;fontStyle=1;fontSize=28;" parent="1" vertex="1">
                    <mxGeometry x="-275" y="1250" width="280" height="50" as="geometry"/>
                </mxCell>
                <mxCell id="133" style="edgeStyle=none;html=1;" parent="1" source="132" target="134" edge="1">
                    <mxGeometry relative="1" as="geometry">
                        <mxPoint x="-220" y="560" as="targetPoint"/>
                    </mxGeometry>
                </mxCell>
                <mxCell id="132" value="&lt;b&gt;SUBSCRIBE&lt;/b&gt;&lt;div&gt;()&lt;/div&gt;" style="rounded=0;whiteSpace=wrap;html=1;fillColor=#ffe6cc;strokeColor=#d79b00;" parent="1" vertex="1">
                    <mxGeometry x="-300" y="424.22" width="160" height="95.78" as="geometry"/>
                </mxCell>
                <mxCell id="135" style="edgeStyle=none;html=1;" parent="1" source="134" target="136" edge="1">
                    <mxGeometry relative="1" as="geometry">
                        <mxPoint x="-220" y="690" as="targetPoint"/>
                    </mxGeometry>
                </mxCell>
                <mxCell id="140" style="edgeStyle=none;html=1;" parent="1" source="134" target="141" edge="1">
                    <mxGeometry relative="1" as="geometry">
                        <mxPoint x="-90" y="590.28" as="targetPoint"/>
                    </mxGeometry>
                </mxCell>
                <mxCell id="134" value="Already Subscribed" style="rhombus;whiteSpace=wrap;html=1;" parent="1" vertex="1">
                    <mxGeometry x="-270" y="540.28" width="100" height="100" as="geometry"/>
                </mxCell>
                <mxCell id="137" style="edgeStyle=none;html=1;" parent="1" source="136" target="139" edge="1">
                    <mxGeometry relative="1" as="geometry">
                        <mxPoint x="-220" y="769.5" as="targetPoint"/>
                    </mxGeometry>
                </mxCell>
                <mxCell id="142" style="edgeStyle=none;html=1;entryX=0.5;entryY=1;entryDx=0;entryDy=0;" parent="1" source="136" target="141" edge="1">
                    <mxGeometry relative="1" as="geometry">
                        <Array as="points">
                            <mxPoint x="-50" y="700"/>
                        </Array>
                    </mxGeometry>
                </mxCell>
                <mxCell id="136" value="Tokens&amp;lt;10" style="rhombus;whiteSpace=wrap;html=1;" parent="1" vertex="1">
                    <mxGeometry x="-260" y="659.5" width="80" height="80" as="geometry"/>
                </mxCell>
                <mxCell id="143" style="edgeStyle=none;html=1;" parent="1" source="139" target="144" edge="1">
                    <mxGeometry relative="1" as="geometry">
                        <mxPoint x="-220" y="920" as="targetPoint"/>
                    </mxGeometry>
                </mxCell>
                <mxCell id="139" value="uesr_address = get_caller()&lt;div&gt;contract_address = get_contract_address()&lt;/div&gt;" style="shape=parallelogram;perimeter=parallelogramPerimeter;whiteSpace=wrap;html=1;fixedSize=1;" parent="1" vertex="1">
                    <mxGeometry x="-315" y="789.75" width="190" height="85.5" as="geometry"/>
                </mxCell>
                <mxCell id="141" value="END" style="rounded=0;whiteSpace=wrap;html=1;" parent="1" vertex="1">
                    <mxGeometry x="-110" y="560.28" width="120" height="60" as="geometry"/>
                </mxCell>
                <mxCell id="146" style="edgeStyle=none;html=1;" parent="1" source="144" target="147" edge="1">
                    <mxGeometry relative="1" as="geometry">
                        <mxPoint x="-220" y="1040" as="targetPoint"/>
                    </mxGeometry>
                </mxCell>
                <mxCell id="144" value="Transfer_token(user_address, contract_address, subscription_amount)" style="rounded=0;whiteSpace=wrap;html=1;" parent="1" vertex="1">
                    <mxGeometry x="-310" y="910" width="180" height="100" as="geometry"/>
                </mxCell>
                <mxCell id="148" style="edgeStyle=none;html=1;entryX=0.75;entryY=1;entryDx=0;entryDy=0;" parent="1" source="147" target="141" edge="1">
                    <mxGeometry relative="1" as="geometry">
                        <Array as="points">
                            <mxPoint x="-20" y="1110"/>
                        </Array>
                    </mxGeometry>
                </mxCell>
                <mxCell id="147" value="subscription_end_time(user) = block_time() + SUBSCRIPTION_PERIOD" style="shape=parallelogram;perimeter=parallelogramPerimeter;whiteSpace=wrap;html=1;fixedSize=1;" parent="1" vertex="1">
                    <mxGeometry x="-320" y="1050.28" width="210" height="115.5" as="geometry"/>
                </mxCell>
                <mxCell id="151" style="edgeStyle=none;html=1;" parent="1" source="150" target="153" edge="1">
                    <mxGeometry relative="1" as="geometry">
                        <mxPoint x="200" y="550.28" as="targetPoint"/>
                    </mxGeometry>
                </mxCell>
                <mxCell id="150" value="Withdraw(amount)&lt;div&gt;Owner function&lt;/div&gt;" style="rounded=0;whiteSpace=wrap;html=1;fillColor=#ffe6cc;strokeColor=#d79b00;" parent="1" vertex="1">
                    <mxGeometry x="125" y="424.22" width="150" height="85.5" as="geometry"/>
                </mxCell>
                <mxCell id="154" style="edgeStyle=none;html=1;" parent="1" source="153" target="155" edge="1">
                    <mxGeometry relative="1" as="geometry">
                        <mxPoint x="200" y="690" as="targetPoint"/>
                    </mxGeometry>
                </mxCell>
                <mxCell id="153" value="Med_token Contract" style="whiteSpace=wrap;html=1;aspect=fixed;" parent="1" vertex="1">
                    <mxGeometry x="160" y="540.28" width="80" height="80" as="geometry"/>
                </mxCell>
                <mxCell id="156" style="edgeStyle=none;html=1;" parent="1" source="155" target="157" edge="1">
                    <mxGeometry relative="1" as="geometry">
                        <mxPoint x="200" y="780" as="targetPoint"/>
                    </mxGeometry>
                </mxCell>
                <mxCell id="155" value="Contract_balance = balance_of&lt;div&gt;(get_contract_balance())&lt;/div&gt;&lt;div&gt;&lt;br&gt;&lt;/div&gt;&lt;div&gt;owner_address = self.ownable.owner()&lt;/div&gt;" style="shape=parallelogram;perimeter=parallelogramPerimeter;whiteSpace=wrap;html=1;fixedSize=1;" parent="1" vertex="1">
                    <mxGeometry x="80" y="659.5" width="240" height="80" as="geometry"/>
                </mxCell>
                <mxCell id="158" style="edgeStyle=none;html=1;" parent="1" source="157" target="159" edge="1">
                    <mxGeometry relative="1" as="geometry">
                        <mxPoint x="320" y="852.25" as="targetPoint"/>
                    </mxGeometry>
                </mxCell>
                <mxCell id="160" style="edgeStyle=none;html=1;" parent="1" source="157" target="161" edge="1">
                    <mxGeometry relative="1" as="geometry">
                        <mxPoint x="200" y="970" as="targetPoint"/>
                    </mxGeometry>
                </mxCell>
                <mxCell id="157" value="Contract_balance&lt;div&gt;&amp;gt;=amount&lt;/div&gt;" style="rhombus;whiteSpace=wrap;html=1;" parent="1" vertex="1">
                    <mxGeometry x="130" y="784.5" width="140" height="135.5" as="geometry"/>
                </mxCell>
                <mxCell id="159" value="END" style="ellipse;whiteSpace=wrap;html=1;" parent="1" vertex="1">
                    <mxGeometry x="311" y="812.25" width="120" height="80" as="geometry"/>
                </mxCell>
                <mxCell id="162" style="edgeStyle=none;html=1;entryX=0.5;entryY=1;entryDx=0;entryDy=0;" parent="1" source="161" target="159" edge="1">
                    <mxGeometry relative="1" as="geometry">
                        <Array as="points">
                            <mxPoint x="371" y="970"/>
                        </Array>
                    </mxGeometry>
                </mxCell>
                <mxCell id="161" value="Transfer Amount from contract to owner_address" style="rounded=0;whiteSpace=wrap;html=1;" parent="1" vertex="1">
                    <mxGeometry x="140" y="940" width="120" height="60" as="geometry"/>
                </mxCell>
                <mxCell id="163" value="No" style="text;html=1;align=center;verticalAlign=middle;resizable=0;points=[];autosize=1;strokeColor=none;fillColor=none;" parent="1" vertex="1">
                    <mxGeometry x="270" y="818" width="40" height="30" as="geometry"/>
                </mxCell>
                <mxCell id="164" value="yes" style="text;html=1;align=center;verticalAlign=middle;resizable=0;points=[];autosize=1;strokeColor=none;fillColor=none;" parent="1" vertex="1">
                    <mxGeometry x="200" y="908" width="40" height="30" as="geometry"/>
                </mxCell>
                <mxCell id="165" value="Yes" style="text;html=1;align=center;verticalAlign=middle;resizable=0;points=[];autosize=1;strokeColor=none;fillColor=none;" parent="1" vertex="1">
                    <mxGeometry x="-180" y="558" width="40" height="30" as="geometry"/>
                </mxCell>
                <mxCell id="166" value="Yes" style="text;html=1;align=center;verticalAlign=middle;resizable=0;points=[];autosize=1;strokeColor=none;fillColor=none;" parent="1" vertex="1">
                    <mxGeometry x="-180" y="668" width="40" height="30" as="geometry"/>
                </mxCell>
                <mxCell id="167" value="No" style="text;html=1;align=center;verticalAlign=middle;resizable=0;points=[];autosize=1;strokeColor=none;fillColor=none;" parent="1" vertex="1">
                    <mxGeometry x="-220" y="748" width="40" height="30" as="geometry"/>
                </mxCell>
                <mxCell id="168" value="No" style="text;html=1;align=center;verticalAlign=middle;resizable=0;points=[];autosize=1;strokeColor=none;fillColor=none;" parent="1" vertex="1">
                    <mxGeometry x="-210" y="628" width="40" height="30" as="geometry"/>
                </mxCell>
            </root>
        </mxGraphModel>
    </diagram>
</mxfile>